<svg xmlns="http://www.w3.org/2000/svg" xmlns:xlink="http://www.w3.org/1999/xlink" xmlns:lucid="lucid" width="1360" height="1760"><g transform="translate(0 0)" lucid:page-tab-id="YGcM5DNywbTK"><g filter="url(#a)"><path d="M673.22 545.22c3.37-2.85 8.85-2.85 12.23 0l107.43 90.62c3.38 2.85 3.38 7.47 0 10.32l-107.43 90.62c-3.38 2.85-8.86 2.85-12.23 0l-107.44-90.62c-3.38-2.85-3.38-7.47 0-10.32z" stroke="#3d4752" stroke-width="4" fill="#fff"/><use xlink:href="#b" transform="matrix(1,0,0,1,574.6611570247934,555.0600000000002) translate(35.48148148148148 73.73333333333333)"/><use xlink:href="#c" transform="matrix(1,0,0,1,574.6611570247934,555.0600000000002) translate(159.7037037037037 73.73333333333333)"/><use xlink:href="#d" transform="matrix(1,0,0,1,574.6611570247934,555.0600000000002) translate(37.70370370370371 108.93333333333334)"/></g><g filter="url(#e)"><path d="M342.62 40C362 40 377.7 58.28 377.7 80.84c0 22.55-15.7 40.84-35.08 40.84H237.38c-19.37 0-35.08-18.3-35.08-40.84C202.3 58.28 218 40 237.38 40z" stroke="#3d4752" stroke-width="4" fill="#ffdba9"/><use xlink:href="#f" transform="matrix(1,0,0,1,217.29989516299298,55) translate(30.111111111111107 31.333333333333336)"/></g><g filter="url(#g)"><path d="M284.25 225.4c3.27-3 8.56-3 11.83 0l98 89.2c3.27 3 3.27 7.8 0 10.8l-98 89.2c-3.27 3-8.56 3-11.83 0l-98-89.2c-3.27-3-3.27-7.8 0-10.8z" stroke="#3d4752" stroke-width="4" fill="#fff"/><use xlink:href="#h" transform="matrix(1,0,0,1,195.3305785123967,235) translate(5.148148148148138 90.33333333333334)"/><use xlink:href="#i" transform="matrix(1,0,0,1,195.3305785123967,235) translate(98.33333333333333 90.33333333333334)"/><use xlink:href="#j" transform="matrix(1,0,0,1,195.3305785123967,235) translate(128.7037037037037 90.33333333333334)"/></g><path d="M290 123.68v48.77h-.08v27.3" stroke="#3d4752" stroke-width="4" fill="none"/><path d="M292 123.68h-4v-2h4zM289.92 214.74l-4.63-14.26h9.26z" fill="#3d4752"/><path d="M289.92 221.2l-7.4-22.72h14.8zm-1.88-18.72l1.88 5.8 1.88-5.8z" fill="#3d4752"/><g filter="url(#k)"><path d="M356 1517.2c24.3 0 44 17.9 44 40s-19.7 40-44 40H224c-24.3 0-44-17.9-44-40s19.7-40 44-40z" stroke="#3d4752" stroke-width="4" fill="#ffdba9"/><use xlink:href="#l" transform="matrix(1,0,0,1,195,1532.2) translate(73.38888888888889 30.333333333333336)"/></g><g filter="url(#m)"><path d="M673.57 225.05c3.37-2.86 8.83-2.86 12.2 0l107.47 91.06c3.37 2.86 3.37 7.5 0 10.35L685.77 417.5c-3.37 2.86-8.83 2.86-12.2 0L566.1 326.46c-3.37-2.86-3.37-7.5 0-10.34z" stroke="#3d4752" stroke-width="4" fill="#fff"/><use xlink:href="#h" transform="matrix(1,0,0,1,575,234.87877618706568) translate(9.962962962962948 91.83333333333334)"/><use xlink:href="#i" transform="matrix(1,0,0,1,575,234.87877618706568) translate(103.14814814814814 91.83333333333334)"/><use xlink:href="#n" transform="matrix(1,0,0,1,575,234.87877618706568) translate(133.51851851851853 91.83333333333334)"/></g><path d="M143.82 311.8l.5 2.53 1.3 1.9 1.88 1.26 2.52.5h31.8v4h-32.2l-3.7-.75-3.2-2.15-2.15-3.2-.75-3.7V207.18h4zm35-228.96h-28.8l-2.52.5-1.9 1.28-1.27 1.9-.5 2.52v86.14h-4V88.64l.74-3.7 2.16-3.2 3.2-2.15 3.7-.76h29.2zM183.96 318.5l-.16 1.83.3 1.67h-2.28v-4h2.32zM193.83 80.84l-14.27 4.64V76.2z" fill="#494949"/><path d="M200.3 80.84l-22.74 7.4v-14.8zm-18.74 1.88l5.8-1.88-5.8-1.88z" fill="#494949"/><use xlink:href="#o" transform="matrix(1,0,0,1,112.9720504595858,175.18316884808854) translate(0.004999999999999005 21.333333333333336)"/><path d="M540.15 319.28v4h-36.42v-4zM398.5 322v-4h57.9v4z" fill="#494949"/><path d="M398.5 322h-2.3l.17-.5.16-1.83-.3-1.67h2.28zM555.15 321.28l-14.27 4.63v-9.26z" fill="#494949"/><path d="M561.62 321.28l-22.74 7.4v-14.8zm-18.74 1.88l5.8-1.88-5.8-1.88z" fill="#494949"/><use xlink:href="#p" transform="matrix(1,0,0,1,456.396281921941,304.63938809353283) translate(0.004999999999999005 21.333333333333336)"/><path d="M854.2 323.28H797.7v-4h56.47zm82.33-4.38h-35v-4h35z" fill="#494949"/><path d="M797.72 323.28h-2.34l.28-.88.08-1.64-.32-1.48h2.3zM951.53 316.9l-14.27 4.64v-9.28z" fill="#494949"/><path d="M958 316.9l-22.74 7.4v-14.8zm-18.74 1.88l5.8-1.88-5.8-1.88z" fill="#494949"/><use xlink:href="#p" transform="matrix(1,0,0,1,854.1931441014036,303.0893880935329) translate(0.004999999999999005 21.333333333333336)"/><g filter="url(#q)"><path d="M960 248c0-4.42 3.58-8 8-8h164c4.42 0 8 3.58 8 8v137.8c0 4.42-3.58 8-8 8H968c-4.42 0-8-3.58-8-8z" stroke="#3d4752" stroke-width="4" fill="#fff"/><use xlink:href="#r" transform="matrix(1,0,0,1,965,245) translate(53.96296296296296 24.53333333333334)"/><use xlink:href="#s" transform="matrix(1,0,0,1,965,245) translate(23.29629629629629 59.73333333333334)"/><use xlink:href="#t" transform="matrix(1,0,0,1,965,245) translate(33.925925925925924 94.93333333333334)"/><use xlink:href="#u" transform="matrix(1,0,0,1,965,245) translate(44.07407407407407 130.13333333333335)"/></g><path d="M1050 238V88.84c0-4.42-3.58-8-8-8H401.17" stroke="#494949" stroke-width="4" fill="none"/><path d="M1052 240h-4v-2h4zM400.44 85.48l-14.27-4.64 14.27-4.64z" fill="#494949"/><path d="M402.44 88.23l-22.74-7.4 22.74-7.38zm-9.8-7.4l5.8 1.9v-3.77z" fill="#494949"/><g filter="url(#v)"><path d="M971 569c0-4.42 3.58-8 8-8h204c4.42 0 8 3.58 8 8v144c0 4.42-3.58 8-8 8H979c-4.42 0-8-3.58-8-8z" stroke="#3d4752" stroke-width="4" fill="#fff"/><use xlink:href="#w" transform="matrix(1,0,0,1,976,566) translate(35.98148148148148 63.233333333333334)"/><use xlink:href="#x" transform="matrix(1,0,0,1,976,566) translate(160.2037037037037 63.233333333333334)"/><use xlink:href="#y" transform="matrix(1,0,0,1,976,566) translate(45.611111111111114 98.43333333333334)"/></g><path d="M854.33 643h-56.96v-4h56.96zm93.2 0h-35.5v-4h35.5zM797.37 643h-2.34l.3-.9.07-1.62-.33-1.48h2.3zM962.53 641l-14.27 4.64v-9.28z" fill="#494949"/><path d="M969 641l-22.74 7.4v-14.8zm-18.74 1.88l5.8-1.88-5.8-1.88z" fill="#494949"/><use xlink:href="#o" transform="matrix(1,0,0,1,854.3348756876259,625) translate(0.004999999999999005 21.333333333333336)"/><path d="M796.53 878v4H703v-4zm-115.2-14.24h-4V740.84h4zM678.46 738.88l2.67-.12.2-.06v2.14h-4v-2.2zM811.53 880l-14.27 4.64v-9.28z" fill="#494949"/><path d="M818 880l-22.74 7.4v-14.8zm-18.74 1.88l5.8-1.88-5.8-1.88z" fill="#494949"/><use xlink:href="#p" transform="matrix(1,0,0,1,655.6639118457301,863.7565981665975) translate(0.004999999999999005 21.333333333333336)"/><g filter="url(#z)"><path d="M820 808c0-4.42 3.58-8 8-8h264c4.42 0 8 3.58 8 8v144c0 4.42-3.58 8-8 8H828c-4.42 0-8-3.58-8-8z" stroke="#3d4752" stroke-width="4" fill="#fff"/><use xlink:href="#A" transform="matrix(1,0,0,1,825,805) translate(22.59259259259258 80.33333333333334)"/><use xlink:href="#B" transform="matrix(1,0,0,1,825,805) translate(136.44444444444446 80.33333333333334)"/></g><path d="M1193 641h32c4.42 0 8 3.58 8 8v223c0 4.42-3.58 8-8 8h-101.53" stroke="#494949" stroke-width="4" fill="none"/><path d="M1193 643h-2v-4h2zM1122.74 884.64l-14.27-4.64 14.27-4.64z" fill="#494949"/><path d="M1124.74 887.4L1102 880l22.74-7.4zm-9.8-7.4l5.8 1.88v-3.76z" fill="#494949"/><g filter="url(#C)"><path d="M180 548c0-4.42 3.58-8 8-8h204c4.42 0 8 3.58 8 8v185.88c0 4.42-3.58 8-8 8H188c-4.42 0-8-3.58-8-8z" stroke="#3d4752" stroke-width="4" fill="#fff"/><use xlink:href="#D" transform="matrix(1,0,0,1,185,545) translate(5.444444444444429 83.73333333333333)"/><use xlink:href="#E" transform="matrix(1,0,0,1,185,545) translate(93.5925925925926 83.73333333333333)"/><use xlink:href="#F" transform="matrix(1,0,0,1,185,545) translate(49.592592592592595 118.93333333333334)"/></g><path d="M455.98 481.8H298.2l-2.53.5-1.9 1.27-1.26 1.9-.5 2.52v28.53h-4V487.6l.75-3.7 2.15-3.2 3.2-2.16 3.7-.75h158.18zm225.7-9.8l-.76 3.7-2.15 3.2-3.2 2.14-3.7.75H513.7v-4h157.77l2.53-.52 1.9-1.28 1.26-1.88.5-2.53v-50.02h4z" fill="#494949"/><path d="M678.83 419.6l2.65-.1.2-.07v2.15h-4v-2.2zM290 531.53l-4.64-14.27h9.28z" fill="#494949"/><path d="M290 538l-7.4-22.74h14.8zm-1.88-18.74l1.88 5.8 1.88-5.8z" fill="#494949"/><use xlink:href="#o" transform="matrix(1,0,0,1,455.98285889194983,463.7881461146301) translate(0.004999999999999005 21.333333333333336)"/><path d="M402 640.94h79.6c.03 0 .04 0 .04.03 0 .02.02.03.03.03h58.15" stroke="#494949" stroke-width="4" fill="none"/><path d="M402 642.94h-2v-4h2zM554.82 641l-14.27 4.64v-9.28z" fill="#494949"/><path d="M561.3 641l-22.75 7.4v-14.8zm-18.75 1.88l5.8-1.88-5.8-1.88z" fill="#494949"/><path d="M960 962v31.4c0 4.42-3.58 8-8 8H420" stroke="#494949" stroke-width="4" fill="none"/><path d="M962 962h-4v-2h4zM419.27 1006.04L405 1001.4l14.27-4.64z" fill="#494949"/><path d="M421.27 1008.8l-22.74-7.4 22.74-7.4zm-9.8-7.4l5.8 1.88v-3.76z" fill="#494949"/><g filter="url(#G)"><path d="M284.12 905.42c3.25-3 8.5-3 11.76 0l98.24 90.56c3.25 3 3.25 7.85 0 10.84l-98.24 90.56c-3.25 3-8.5 3-11.76 0l-98.24-90.56c-3.25-3-3.25-7.85 0-10.84z" stroke="#3d4752" stroke-width="4" fill="#fff"/><use xlink:href="#H" transform="matrix(1,0,0,1,185,905) translate(34.537037037037024 84.23333333333333)"/><use xlink:href="#I" transform="matrix(1,0,0,1,185,905) translate(83.35185185185185 84.23333333333333)"/><use xlink:href="#J" transform="matrix(1,0,0,1,185,905) translate(105.57407407407408 84.23333333333333)"/><use xlink:href="#K" transform="matrix(1,0,0,1,185,905) translate(42.611111111111114 119.43333333333334)"/></g><path d="M292 1212.73h-4v-28.83h4zm0-60.83h-4v-50.3h4zM289.63 1099.62l2.35-.22.02 2.2h-4v-2.27zM290 1227.73l-4.64-14.27h9.28z" fill="#494949"/><path d="M290 1234.2l-7.4-22.74h14.8zm-1.88-18.74l1.88 5.8 1.88-5.8z" fill="#494949"/><use xlink:href="#p" transform="matrix(1,0,0,1,266.3333333333333,1151.895531471208) translate(0.004999999999999005 21.333333333333336)"/><path d="M292 901.2h-4v-62.66h4zm0-94.66h-4v-41.2h4zM292 903.47l-1.63-.3-2.35.23-.02-2.2h4zM294.64 764.62h-9.28l4.64-14.27z" fill="#494949"/><path d="M297.4 766.62h-14.8l7.4-22.74zm-9.28-4h3.76l-1.88-5.8z" fill="#494949"/><use xlink:href="#o" transform="matrix(1,0,0,1,261.14814814814815,806.5444685287919) translate(0.004999999999999005 21.333333333333336)"/><g filter="url(#L)"><path d="M180 1244.2c0-4.42 3.58-8 8-8h204c4.42 0 8 3.58 8 8v131.6c0 4.42-3.58 8-8 8H188c-4.42 0-8-3.58-8-8z" stroke="#3d4752" stroke-width="4" fill="#fff"/><use xlink:href="#M" transform="matrix(1,0,0,1,185,1241.2) translate(57.499999999999986 21.53333333333334)"/><use xlink:href="#N" transform="matrix(1,0,0,1,185,1241.2) translate(39.64814814814815 56.73333333333334)"/><use xlink:href="#O" transform="matrix(1,0,0,1,185,1241.2) translate(9.31481481481481 91.93333333333334)"/><use xlink:href="#P" transform="matrix(1,0,0,1,185,1241.2) translate(172.05555555555554 91.93333333333334)"/><use xlink:href="#Q" transform="matrix(1,0,0,1,185,1241.2) translate(84.05555555555556 127.13333333333335)"/></g><path d="M290 1385.8v107.93" stroke="#494949" stroke-width="4" fill="none"/><path d="M292 1385.8h-4v-2h4zM290 1508.73l-4.64-14.27h9.28z" fill="#494949"/><path d="M290 1515.2l-7.4-22.74h14.8zm-1.88-18.74l1.88 5.8 1.88-5.8z" fill="#494949"/><g filter="url(#k)"><path d="M836 1083c24.3 0 44 17.9 44 40s-19.7 40-44 40H704c-24.3 0-44-17.9-44-40s19.7-40 44-40z" stroke="#3d4752" stroke-width="4" fill="#ffdba9"/><use xlink:href="#R" transform="matrix(1,0,0,1,675,1098) translate(4.574074074074076 30.333333333333336)"/></g><g filter="url(#C)"><path d="M1020 1091c0-4.42 3.58-8 8-8h204c4.42 0 8 3.58 8 8v185.88c0 4.42-3.58 8-8 8h-204c-4.42 0-8-3.58-8-8z" stroke="#3d4752" stroke-width="4" fill="#fff"/><use xlink:href="#D" transform="matrix(1,0,0,1,1025,1088) translate(5.444444444444429 83.73333333333333)"/><use xlink:href="#E" transform="matrix(1,0,0,1,1025,1088) translate(93.5925925925926 83.73333333333333)"/><use xlink:href="#F" transform="matrix(1,0,0,1,1025,1088) translate(49.592592592592595 118.93333333333334)"/></g><g filter="url(#S)"><path d="M1020 1386c0-4.42 3.58-8 8-8h215c4.42 0 8 3.58 8 8v144c0 4.42-3.58 8-8 8h-215c-4.42 0-8-3.58-8-8z" stroke="#3d4752" stroke-width="4" fill="#fff"/><use xlink:href="#T" transform="matrix(1,0,0,1,1025,1383) translate(19.574074074074076 62.733333333333334)"/><use xlink:href="#B" transform="matrix(1,0,0,1,1025,1383) translate(55.01851851851852 97.93333333333334)"/></g><g filter="url(#G)"><path d="M744.12 1241.42c3.25-3 8.5-3 11.76 0l98.24 90.56c3.25 3 3.25 7.85 0 10.84l-98.24 90.56c-3.25 3-8.5 3-11.76 0l-98.24-90.56c-3.25-3-3.25-7.85 0-10.84z" stroke="#3d4752" stroke-width="4" fill="#fff"/><use xlink:href="#H" transform="matrix(1,0,0,1,645,1241) translate(34.537037037037024 84.23333333333333)"/><use xlink:href="#I" transform="matrix(1,0,0,1,645,1241) translate(83.35185185185185 84.23333333333333)"/><use xlink:href="#J" transform="matrix(1,0,0,1,645,1241) translate(105.57407407407408 84.23333333333333)"/><use xlink:href="#K" transform="matrix(1,0,0,1,645,1241) translate(42.611111111111114 119.43333333333334)"/></g><g filter="url(#L)"><path d="M640 1571.2c0-4.42 3.58-8 8-8h204c4.42 0 8 3.58 8 8v131.6c0 4.42-3.58 8-8 8H648c-4.42 0-8-3.58-8-8z" stroke="#3d4752" stroke-width="4" fill="#fff"/><use xlink:href="#M" transform="matrix(1,0,0,1,645,1568.2) translate(57.499999999999986 21.53333333333334)"/><use xlink:href="#N" transform="matrix(1,0,0,1,645,1568.2) translate(39.64814814814815 56.73333333333334)"/><use xlink:href="#U" transform="matrix(1,0,0,1,645,1568.2) translate(6.351851851851862 91.93333333333334)"/><use xlink:href="#V" transform="matrix(1,0,0,1,645,1568.2) translate(65.53703703703704 127.13333333333335)"/><use xlink:href="#Q" transform="matrix(1,0,0,1,645,1568.2) translate(102.57407407407408 127.13333333333335)"/></g><g filter="url(#W)"><path d="M1204.8 1597c25.52 0 46.2 17.9 46.2 40s-20.68 40-46.2 40h-138.6c-25.52 0-46.2-17.9-46.2-40s20.68-40 46.2-40z" stroke="#3d4752" stroke-width="4" fill="#ffdba9"/><use xlink:href="#l" transform="matrix(1,0,0,1,1035,1612) translate(78.88888888888889 30.333333333333336)"/></g><path d="M882 1123h114.53" stroke="#494949" stroke-width="4" fill="none"/><path d="M882 1125h-2.1l.1-2-.1-2h2.1zM1011.53 1123l-14.27 4.64v-9.28z" fill="#494949"/><path d="M1018 1123l-22.74 7.4v-14.8zm-18.74 1.88l5.8-1.88-5.8-1.88z" fill="#494949"/><path d="M1130 1286.88v67.65" stroke="#494949" stroke-width="4" fill="none"/><path d="M1132 1286.88h-4v-2h4zM1130 1369.53l-4.64-14.27h9.28z" fill="#494949"/><path d="M1130 1376l-7.4-22.74h14.8zm-1.88-18.74l1.88 5.8 1.88-5.8z" fill="#494949"/><path d="M1018 1458h-71.73c-4.42 0-8-3.58-8-8v-104.6c0-4.42-3.6-8-8-8H880" stroke="#494949" stroke-width="4" fill="none"/><path d="M1020 1460h-2v-4h2zM879.27 1342.04L865 1337.4l14.27-4.64z" fill="#494949"/><path d="M881.27 1344.8l-22.74-7.4 22.74-7.4zm-9.8-7.4l5.8 1.88v-3.76zM854.88 1238.67h-104.6v-1.46H748v-.66l.55-1.32 1.32-.55h105zm141.65 0h-83.95v-4h83.95z" fill="#494949"/><path d="M750.07 1239.2l-3 .12-.14-4 3-.1zM1011.53 1236.67l-14.27 4.63v-9.27z" fill="#494949"/><path d="M1018 1236.67l-22.74 7.38v-14.77zm-18.74 1.88l5.8-1.88-5.8-1.9z" fill="#494949"/><use xlink:href="#o" transform="matrix(1,0,0,1,854.8770129526896,1220.6666666666667) translate(0.004999999999999005 21.333333333333336)"/><path d="M752 1539.73h-4v-24.33h4zm0-56.33h-4v-45.8h4zM749.63 1435.62l2.35-.22.02 2.2h-4v-2.27zM750 1554.73l-4.64-14.27h9.28z" fill="#494949"/><path d="M750 1561.2l-7.4-22.74h14.8zm-1.88-18.74l1.88 5.8 1.88-5.8z" fill="#494949"/><use xlink:href="#p" transform="matrix(1,0,0,1,726.3333333333334,1483.395531471208) translate(0.004999999999999005 21.333333333333336)"/><path d="M862 1637h134.53" stroke="#494949" stroke-width="4" fill="none"/><path d="M862 1639h-2v-4h2zM1011.53 1637l-14.27 4.64v-9.28z" fill="#494949"/><path d="M1018 1637l-22.74 7.4v-14.8zm-18.74 1.88l5.8-1.88-5.8-1.88z" fill="#494949"/><defs><path fill="#3d4752" d="M212-179c-10-28-35-45-73-45-59 0-87 40-87 99 0 60 29 101 89 101 43 0 62-24 78-52l27 14C228-24 195 4 139 4 59 4 22-46 18-125c-6-104 99-153 187-111 19 9 31 26 39 46" id="X"/><path fill="#3d4752" d="M141-36C126-15 110 5 73 4 37 3 15-17 15-53c-1-64 63-63 125-63 3-35-9-54-41-54-24 1-41 7-42 31l-33-3c5-37 33-52 76-52 45 0 72 20 72 64v82c-1 20 7 32 28 27v20c-31 9-61-2-59-35zM48-53c0 20 12 33 32 33 41-3 63-29 60-74-43 2-92-5-92 41" id="Y"/><path fill="#3d4752" d="M114-163C36-179 61-72 57 0H25l-1-190h30c1 12-1 29 2 39 6-27 23-49 58-41v29" id="Z"/><path fill="#3d4752" d="M96-169c-40 0-48 33-48 73s9 75 48 75c24 0 41-14 43-38l32 2c-6 37-31 61-74 61-59 0-76-41-82-99-10-93 101-131 147-64 4 7 5 14 7 22l-32 3c-4-21-16-35-41-35" id="aa"/><path fill="#3d4752" d="M59-47c-2 24 18 29 38 22v24C64 9 27 4 27-40v-127H5v-23h24l9-43h21v43h35v23H59v120" id="ab"/><path fill="#3d4752" d="M100-194c63 0 86 42 84 106H49c0 40 14 67 53 68 26 1 43-12 49-29l28 8c-11 28-37 45-77 45C44 4 14-33 15-96c1-61 26-98 85-98zm52 81c6-60-76-77-97-28-3 7-6 17-6 28h103" id="ac"/><g id="b"><use transform="matrix(0.07407407407407408,0,0,0.07407407407407408,0,0)" xlink:href="#X"/><use transform="matrix(0.07407407407407408,0,0,0.07407407407407408,19.185185185185187,0)" xlink:href="#Y"/><use transform="matrix(0.07407407407407408,0,0,0.07407407407407408,34,0)" xlink:href="#Z"/><use transform="matrix(0.07407407407407408,0,0,0.07407407407407408,42.814814814814824,0)" xlink:href="#Y"/><use transform="matrix(0.07407407407407408,0,0,0.07407407407407408,57.62962962962964,0)" xlink:href="#aa"/><use transform="matrix(0.07407407407407408,0,0,0.07407407407407408,70.96296296296296,0)" xlink:href="#ab"/><use transform="matrix(0.07407407407407408,0,0,0.07407407407407408,78.37037037037037,0)" xlink:href="#ac"/><use transform="matrix(0.07407407407407408,0,0,0.07407407407407408,93.18518518518519,0)" xlink:href="#Z"/><use transform="matrix(0.07407407407407408,0,0,0.07407407407407408,102,0)" xlink:href="#ac"/></g><path fill="#3d4752" d="M100-194c63 0 86 42 84 106H49c0 40 14 67 53 68 26 1 43-12 49-29l28 8c-11 28-37 45-77 45C44 4 14-33 15-96c1-61 26-98 85-98zm52 81c6-60-76-77-97-28-3 7-6 17-6 28h103zm-74-98c8-23 27-35 38-54h36v5l-58 49H78" id="ad"/><use transform="matrix(0.07407407407407408,0,0,0.07407407407407408,0,0)" xlink:href="#ad" id="c"/><path fill="#3d4752" d="M210-169c-67 3-38 105-44 169h-31v-121c0-29-5-50-35-48C34-165 62-65 56 0H25l-1-190h30c1 10-1 24 2 32 10-44 99-50 107 0 11-21 27-35 58-36 85-2 47 119 55 194h-31v-121c0-29-5-49-35-48" id="ae"/><path fill="#3d4752" d="M24-231v-30h32v30H24zM24 0v-190h32V0H24" id="af"/><path fill="#3d4752" d="M85 4C-4 8 31-112 24-190h32v120c0 31 7 50 39 49 72-2 45-101 50-169h31l1 190h-30c-1-10 1-25-2-33-11 22-28 36-60 37zM73-211c8-23 27-35 38-54h36v5l-58 49H73" id="ag"/><path fill="#3d4752" d="M135-143c-3-34-86-38-87 0 15 53 115 12 119 90S17 21 10-45l28-5c4 36 97 45 98 0-10-56-113-15-118-90-4-57 82-63 122-42 12 7 21 19 24 35" id="ah"/><path fill="#3d4752" d="M84 4C-5 8 30-112 23-190h32v120c0 31 7 50 39 49 72-2 45-101 50-169h31l1 190h-30c-1-10 1-25-2-33-11 22-28 36-60 37" id="ai"/><path fill="#3d4752" d="M24 0v-261h32V0H24" id="aj"/><path fill="#3d4752" d="M100-194c62-1 85 37 85 99 1 63-27 99-86 99S16-35 15-95c0-66 28-99 85-99zM99-20c44 1 53-31 53-75 0-43-8-75-51-75s-53 32-53 75 10 74 51 75" id="ak"/><path fill="#3d4752" d="M103-251c84 0 111 97 45 133-19 10-37 24-39 52H78c0-63 77-55 77-114 0-30-21-42-52-43-32 0-53 17-56 46l-32-2c7-45 34-72 88-72zM77 0v-35h34V0H77" id="al"/><g id="d"><use transform="matrix(0.07407407407407408,0,0,0.07407407407407408,0,0)" xlink:href="#ae"/><use transform="matrix(0.07407407407407408,0,0,0.07407407407407408,22.148148148148152,0)" xlink:href="#Y"/><use transform="matrix(0.07407407407407408,0,0,0.07407407407407408,36.96296296296297,0)" xlink:href="#af"/><use transform="matrix(0.07407407407407408,0,0,0.07407407407407408,42.814814814814824,0)" xlink:href="#ag"/><use transform="matrix(0.07407407407407408,0,0,0.07407407407407408,57.62962962962964,0)" xlink:href="#ah"/><use transform="matrix(0.07407407407407408,0,0,0.07407407407407408,70.96296296296298,0)" xlink:href="#aa"/><use transform="matrix(0.07407407407407408,0,0,0.07407407407407408,84.2962962962963,0)" xlink:href="#ai"/><use transform="matrix(0.07407407407407408,0,0,0.07407407407407408,99.11111111111111,0)" xlink:href="#aj"/><use transform="matrix(0.07407407407407408,0,0,0.07407407407407408,104.96296296296296,0)" xlink:href="#ak"/><use transform="matrix(0.07407407407407408,0,0,0.07407407407407408,119.77777777777777,0)" xlink:href="#al"/></g><filter id="a" filterUnits="objectBoundingBox" x="-.04" y="-.02" width="1.08" height="1.1"><feOffset result="offOut" in="SourceAlpha" dy="6"/><feGaussianBlur result="blurOut" in="offOut" stdDeviation="5"/><feColorMatrix result="colorOut" in="blurOut" values="0 0 0 0 0 0 0 0 0 0 0 0 0 0 0 0 0 0 0.16862745098039217 0"/><feBlend in="SourceGraphic" in2="colorOut"/></filter><path fill="#3d4752" d="M30-248c87 1 191-15 191 75 0 78-77 80-158 76V0H30v-248zm33 125c57 0 124 11 124-50 0-59-68-47-124-48v98" id="am"/><path fill="#3d4752" d="M115-194c55 1 70 41 70 98S169 2 115 4C84 4 66-9 55-30l1 105H24l-1-265h31l2 30c10-21 28-34 59-34zm-8 174c40 0 45-34 45-75s-6-73-45-74c-42 0-51 32-51 76 0 43 10 73 51 73" id="an"/><g id="f"><use transform="matrix(0.07407407407407408,0,0,0.07407407407407408,0,0)" xlink:href="#am"/><use transform="matrix(0.07407407407407408,0,0,0.07407407407407408,17.77777777777778,0)" xlink:href="#Z"/><use transform="matrix(0.07407407407407408,0,0,0.07407407407407408,26.592592592592595,0)" xlink:href="#ak"/><use transform="matrix(0.07407407407407408,0,0,0.07407407407407408,41.40740740740741,0)" xlink:href="#ae"/><use transform="matrix(0.07407407407407408,0,0,0.07407407407407408,63.555555555555564,0)" xlink:href="#an"/><use transform="matrix(0.07407407407407408,0,0,0.07407407407407408,78.37037037037038,0)" xlink:href="#ab"/></g><filter id="e" filterUnits="objectBoundingBox" x="-.06" y="-.05" width="1.11" height="1.24"><feOffset result="offOut" in="SourceAlpha" dy="6"/><feGaussianBlur result="blurOut" in="offOut" stdDeviation="5"/><feColorMatrix result="colorOut" in="blurOut" values="0 0 0 0 0 0 0 0 0 0 0 0 0 0 0 0 0 0 0.16862745098039217 0"/><feBlend in="SourceGraphic" in2="colorOut"/></filter><g id="h"><use transform="matrix(0.07407407407407408,0,0,0.07407407407407408,0,0)" xlink:href="#am"/><use transform="matrix(0.07407407407407408,0,0,0.07407407407407408,17.77777777777778,0)" xlink:href="#Z"/><use transform="matrix(0.07407407407407408,0,0,0.07407407407407408,26.592592592592595,0)" xlink:href="#ak"/><use transform="matrix(0.07407407407407408,0,0,0.07407407407407408,41.40740740740741,0)" xlink:href="#ae"/><use transform="matrix(0.07407407407407408,0,0,0.07407407407407408,63.555555555555564,0)" xlink:href="#an"/><use transform="matrix(0.07407407407407408,0,0,0.07407407407407408,78.37037037037038,0)" xlink:href="#ab"/></g><path fill="#3d4752" d="M63-70H37l-4-178h34zM33 0v-35h34V0H33" id="ao"/><path fill="#3d4752" d="M18-150v-26h174v26H18zm0 90v-26h174v26H18" id="ap"/><g id="i"><use transform="matrix(0.07407407407407408,0,0,0.07407407407407408,0,0)" xlink:href="#ao"/><use transform="matrix(0.07407407407407408,0,0,0.07407407407407408,7.407407407407408,0)" xlink:href="#ap"/></g><path fill="#3d4752" d="M117-194c89-4 53 116 60 194h-32v-121c0-31-8-49-39-48C34-167 62-67 57 0H25l-1-190h30c1 10-1 24 2 32 11-22 29-35 61-36" id="aq"/><g id="j"><use transform="matrix(0.07407407407407408,0,0,0.07407407407407408,0,0)" xlink:href="#aq"/><use transform="matrix(0.07407407407407408,0,0,0.07407407407407408,14.814814814814817,0)" xlink:href="#ai"/><use transform="matrix(0.07407407407407408,0,0,0.07407407407407408,29.629629629629633,0)" xlink:href="#aj"/><use transform="matrix(0.07407407407407408,0,0,0.07407407407407408,35.48148148148149,0)" xlink:href="#aj"/><use transform="matrix(0.07407407407407408,0,0,0.07407407407407408,41.333333333333336,0)" xlink:href="#al"/></g><filter id="g" filterUnits="objectBoundingBox" x="-.05" y="-.02" width="1.09" height="1.1"><feOffset result="offOut" in="SourceAlpha" dy="6"/><feGaussianBlur result="blurOut" in="offOut" stdDeviation="5"/><feColorMatrix result="colorOut" in="blurOut" values="0 0 0 0 0 0 0 0 0 0 0 0 0 0 0 0 0 0 0.16862745098039217 0"/><feBlend in="SourceGraphic" in2="colorOut"/></filter><path fill="#3d4752" d="M63-220v92h138v28H63V0H30v-248h175v28H63" id="ar"/><g id="l"><use transform="matrix(0.07407407407407408,0,0,0.07407407407407408,0,0)" xlink:href="#ar"/><use transform="matrix(0.07407407407407408,0,0,0.07407407407407408,16.222222222222225,0)" xlink:href="#af"/><use transform="matrix(0.07407407407407408,0,0,0.07407407407407408,22.074074074074076,0)" xlink:href="#ae"/></g><filter id="k" filterUnits="objectBoundingBox" x="-.05" y="-.05" width="1.09" height="1.25"><feOffset result="offOut" in="SourceAlpha" dy="6"/><feGaussianBlur result="blurOut" in="offOut" stdDeviation="5"/><feColorMatrix result="colorOut" in="blurOut" values="0 0 0 0 0 0 0 0 0 0 0 0 0 0 0 0 0 0 0.16862745098039217 0"/><feBlend in="SourceGraphic" in2="colorOut"/></filter><g id="n"><use transform="matrix(0.07407407407407408,0,0,0.07407407407407408,0,0)" xlink:href="#aj"/><use transform="matrix(0.07407407407407408,0,0,0.07407407407407408,5.851851851851853,0)" xlink:href="#ac"/><use transform="matrix(0.07407407407407408,0,0,0.07407407407407408,20.666666666666668,0)" xlink:href="#ab"/><use transform="matrix(0.07407407407407408,0,0,0.07407407407407408,28.074074074074076,0)" xlink:href="#Z"/><use transform="matrix(0.07407407407407408,0,0,0.07407407407407408,36.8888888888889,0)" xlink:href="#Y"/><use transform="matrix(0.07407407407407408,0,0,0.07407407407407408,51.70370370370372,0)" xlink:href="#al"/></g><filter id="m" filterUnits="objectBoundingBox" x="-.04" y="-.02" width="1.08" height="1.1"><feOffset result="offOut" in="SourceAlpha" dy="6"/><feGaussianBlur result="blurOut" in="offOut" stdDeviation="5"/><feColorMatrix result="colorOut" in="blurOut" values="0 0 0 0 0 0 0 0 0 0 0 0 0 0 0 0 0 0 0.16862745098039217 0"/><feBlend in="SourceGraphic" in2="colorOut"/></filter><path fill="#3d4752" d="M190 0L58-211 59 0H30v-248h39L202-35l-2-213h31V0h-41" id="as"/><path fill="#3d4752" d="M184-316c-4 23-8 48-36 47s-64-43-75 0H57c4-23 8-48 36-47s64 44 74 0h17zM205 0l-28-72H64L36 0H1l101-248h38L239 0h-34zm-38-99l-47-123c-12 45-31 82-46 123h93" id="at"/><path fill="#3d4752" d="M140-251c81 0 123 46 123 126C263-46 219 4 140 4 59 4 17-45 17-125s42-126 123-126zm0 227c63 0 89-41 89-101s-29-99-89-99c-61 0-89 39-89 99S79-25 140-24" id="au"/><g id="o"><use transform="matrix(0.07407407407407408,0,0,0.07407407407407408,0,0)" xlink:href="#as"/><use transform="matrix(0.07407407407407408,0,0,0.07407407407407408,19.185185185185187,0)" xlink:href="#at"/><use transform="matrix(0.07407407407407408,0,0,0.07407407407407408,36.96296296296296,0)" xlink:href="#au"/></g><path fill="#3d4752" d="M185-189c-5-48-123-54-124 2 14 75 158 14 163 119 3 78-121 87-175 55-17-10-28-26-33-46l33-7c5 56 141 63 141-1 0-78-155-14-162-118-5-82 145-84 179-34 5 7 8 16 11 25" id="av"/><path fill="#3d4752" d="M33 0v-248h34V0H33" id="aw"/><path fill="#3d4752" d="M240 0l2-218c-23 76-54 145-80 218h-23L58-218 59 0H30v-248h44l77 211c21-75 51-140 76-211h43V0h-30" id="ax"/><g id="p"><use transform="matrix(0.07407407407407408,0,0,0.07407407407407408,0,0)" xlink:href="#av"/><use transform="matrix(0.07407407407407408,0,0,0.07407407407407408,17.77777777777778,0)" xlink:href="#aw"/><use transform="matrix(0.07407407407407408,0,0,0.07407407407407408,25.185185185185187,0)" xlink:href="#ax"/></g><path fill="#3d4752" d="M205 0l-28-72H64L36 0H1l101-248h38L239 0h-34zm-38-99l-47-123c-12 45-31 82-46 123h93" id="ay"/><path fill="#3d4752" d="M33-154v-36h34v36H33zM33 0v-36h34V0H33" id="az"/><g id="r"><use transform="matrix(0.07407407407407408,0,0,0.07407407407407408,0,0)" xlink:href="#ay"/><use transform="matrix(0.07407407407407408,0,0,0.07407407407407408,17.77777777777778,0)" xlink:href="#aj"/><use transform="matrix(0.07407407407407408,0,0,0.07407407407407408,23.629629629629633,0)" xlink:href="#ac"/><use transform="matrix(0.07407407407407408,0,0,0.07407407407407408,38.44444444444445,0)" xlink:href="#Z"/><use transform="matrix(0.07407407407407408,0,0,0.07407407407407408,47.25925925925927,0)" xlink:href="#ab"/><use transform="matrix(0.07407407407407408,0,0,0.07407407407407408,54.66666666666667,0)" xlink:href="#az"/></g><path fill="#3d4752" d="M109-170H84l-4-78h32zm-65 0H19l-4-78h33" id="aA"/><path fill="#3d4752" d="M106-169C34-169 62-67 57 0H25v-261h32l-1 103c12-21 28-36 61-36 89 0 53 116 60 194h-32v-121c2-32-8-49-39-48" id="aB"/><g id="s"><use transform="matrix(0.07407407407407408,0,0,0.07407407407407408,0,0)" xlink:href="#aA"/><use transform="matrix(0.07407407407407408,0,0,0.07407407407407408,9.407407407407408,0)" xlink:href="#am"/><use transform="matrix(0.07407407407407408,0,0,0.07407407407407408,27.18518518518519,0)" xlink:href="#Z"/><use transform="matrix(0.07407407407407408,0,0,0.07407407407407408,36,0)" xlink:href="#ac"/><use transform="matrix(0.07407407407407408,0,0,0.07407407407407408,50.81481481481481,0)" xlink:href="#ac"/><use transform="matrix(0.07407407407407408,0,0,0.07407407407407408,65.62962962962963,0)" xlink:href="#aq"/><use transform="matrix(0.07407407407407408,0,0,0.07407407407407408,80.44444444444446,0)" xlink:href="#aa"/><use transform="matrix(0.07407407407407408,0,0,0.07407407407407408,93.7777777777778,0)" xlink:href="#aB"/><use transform="matrix(0.07407407407407408,0,0,0.07407407407407408,108.59259259259261,0)" xlink:href="#Y"/></g><g id="t"><use transform="matrix(0.07407407407407408,0,0,0.07407407407407408,0,0)" xlink:href="#ah"/><use transform="matrix(0.07407407407407408,0,0,0.07407407407407408,13.333333333333336,0)" xlink:href="#ak"/><use transform="matrix(0.07407407407407408,0,0,0.07407407407407408,28.148148148148152,0)" xlink:href="#ae"/><use transform="matrix(0.07407407407407408,0,0,0.07407407407407408,50.296296296296305,0)" xlink:href="#ac"/><use transform="matrix(0.07407407407407408,0,0,0.07407407407407408,65.11111111111111,0)" xlink:href="#aq"/><use transform="matrix(0.07407407407407408,0,0,0.07407407407407408,79.92592592592592,0)" xlink:href="#ab"/><use transform="matrix(0.07407407407407408,0,0,0.07407407407407408,87.33333333333333,0)" xlink:href="#ac"/></g><g id="u"><use transform="matrix(0.07407407407407408,0,0,0.07407407407407408,0,0)" xlink:href="#aj"/><use transform="matrix(0.07407407407407408,0,0,0.07407407407407408,5.851851851851853,0)" xlink:href="#ac"/><use transform="matrix(0.07407407407407408,0,0,0.07407407407407408,20.666666666666668,0)" xlink:href="#ab"/><use transform="matrix(0.07407407407407408,0,0,0.07407407407407408,28.074074074074076,0)" xlink:href="#Z"/><use transform="matrix(0.07407407407407408,0,0,0.07407407407407408,36.8888888888889,0)" xlink:href="#Y"/><use transform="matrix(0.07407407407407408,0,0,0.07407407407407408,51.70370370370372,0)" xlink:href="#ah"/><use transform="matrix(0.07407407407407408,0,0,0.07407407407407408,65.03703703703705,0)" xlink:href="#ao"/><use transform="matrix(0.07407407407407408,0,0,0.07407407407407408,72.44444444444446,0)" xlink:href="#aA"/></g><filter id="q" filterUnits="objectBoundingBox" x="-.06" y="-.03" width="1.11" height="1.13"><feOffset result="offOut" in="SourceAlpha" dy="6"/><feGaussianBlur result="blurOut" in="offOut" stdDeviation="5"/><feColorMatrix result="colorOut" in="blurOut" values="0 0 0 0 0 0 0 0 0 0 0 0 0 0 0 0 0 0 0.16862745098039217 0"/><feBlend in="SourceGraphic" in2="colorOut"/></filter><g id="w"><use transform="matrix(0.07407407407407408,0,0,0.07407407407407408,0,0)" xlink:href="#X"/><use transform="matrix(0.07407407407407408,0,0,0.07407407407407408,19.185185185185187,0)" xlink:href="#Y"/><use transform="matrix(0.07407407407407408,0,0,0.07407407407407408,34,0)" xlink:href="#Z"/><use transform="matrix(0.07407407407407408,0,0,0.07407407407407408,42.814814814814824,0)" xlink:href="#Y"/><use transform="matrix(0.07407407407407408,0,0,0.07407407407407408,57.62962962962964,0)" xlink:href="#aa"/><use transform="matrix(0.07407407407407408,0,0,0.07407407407407408,70.96296296296296,0)" xlink:href="#ab"/><use transform="matrix(0.07407407407407408,0,0,0.07407407407407408,78.37037037037037,0)" xlink:href="#ac"/><use transform="matrix(0.07407407407407408,0,0,0.07407407407407408,93.18518518518519,0)" xlink:href="#Z"/><use transform="matrix(0.07407407407407408,0,0,0.07407407407407408,102,0)" xlink:href="#ac"/></g><use transform="matrix(0.07407407407407408,0,0,0.07407407407407408,0,0)" xlink:href="#ad" id="x"/><g id="y"><use transform="matrix(0.07407407407407408,0,0,0.07407407407407408,0,0)" xlink:href="#ae"/><use transform="matrix(0.07407407407407408,0,0,0.07407407407407408,22.148148148148152,0)" xlink:href="#af"/><use transform="matrix(0.07407407407407408,0,0,0.07407407407407408,28.000000000000007,0)" xlink:href="#aq"/><use transform="matrix(0.07407407407407408,0,0,0.07407407407407408,42.814814814814824,0)" xlink:href="#ai"/><use transform="matrix(0.07407407407407408,0,0,0.07407407407407408,57.62962962962964,0)" xlink:href="#ah"/><use transform="matrix(0.07407407407407408,0,0,0.07407407407407408,70.96296296296298,0)" xlink:href="#aa"/><use transform="matrix(0.07407407407407408,0,0,0.07407407407407408,84.2962962962963,0)" xlink:href="#ai"/><use transform="matrix(0.07407407407407408,0,0,0.07407407407407408,99.11111111111111,0)" xlink:href="#aj"/><use transform="matrix(0.07407407407407408,0,0,0.07407407407407408,104.96296296296296,0)" xlink:href="#ak"/></g><filter id="v" filterUnits="objectBoundingBox" x="-.05" y="-.02" width="1.09" height="1.13"><feOffset result="offOut" in="SourceAlpha" dy="6"/><feGaussianBlur result="blurOut" in="offOut" stdDeviation="5"/><feColorMatrix result="colorOut" in="blurOut" values="0 0 0 0 0 0 0 0 0 0 0 0 0 0 0 0 0 0 0.16862745098039217 0"/><feBlend in="SourceGraphic" in2="colorOut"/></filter><path fill="#3d4752" d="M30 0v-248h187v28H63v79h144v27H63v87h162V0H30" id="aC"/><g id="A"><use transform="matrix(0.07407407407407408,0,0,0.07407407407407408,0,0)" xlink:href="#aC"/><use transform="matrix(0.07407407407407408,0,0,0.07407407407407408,17.77777777777778,0)" xlink:href="#aq"/><use transform="matrix(0.07407407407407408,0,0,0.07407407407407408,32.592592592592595,0)" xlink:href="#aa"/><use transform="matrix(0.07407407407407408,0,0,0.07407407407407408,45.92592592592593,0)" xlink:href="#Z"/><use transform="matrix(0.07407407407407408,0,0,0.07407407407407408,54.74074074074075,0)" xlink:href="#af"/><use transform="matrix(0.07407407407407408,0,0,0.07407407407407408,60.5925925925926,0)" xlink:href="#an"/><use transform="matrix(0.07407407407407408,0,0,0.07407407407407408,75.40740740740742,0)" xlink:href="#ab"/><use transform="matrix(0.07407407407407408,0,0,0.07407407407407408,82.81481481481482,0)" xlink:href="#Y"/><use transform="matrix(0.07407407407407408,0,0,0.07407407407407408,97.62962962962965,0)" xlink:href="#Z"/></g><g id="B"><use transform="matrix(0.07407407407407408,0,0,0.07407407407407408,0,0)" xlink:href="#aa"/><use transform="matrix(0.07407407407407408,0,0,0.07407407407407408,13.333333333333336,0)" xlink:href="#Y"/><use transform="matrix(0.07407407407407408,0,0,0.07407407407407408,28.148148148148152,0)" xlink:href="#Z"/><use transform="matrix(0.07407407407407408,0,0,0.07407407407407408,36.96296296296297,0)" xlink:href="#Y"/><use transform="matrix(0.07407407407407408,0,0,0.07407407407407408,51.777777777777786,0)" xlink:href="#aa"/><use transform="matrix(0.07407407407407408,0,0,0.07407407407407408,65.11111111111111,0)" xlink:href="#ab"/><use transform="matrix(0.07407407407407408,0,0,0.07407407407407408,72.51851851851852,0)" xlink:href="#ac"/><use transform="matrix(0.07407407407407408,0,0,0.07407407407407408,87.33333333333334,0)" xlink:href="#Z"/><use transform="matrix(0.07407407407407408,0,0,0.07407407407407408,96.14814814814814,0)" xlink:href="#ac"/></g><filter id="z" filterUnits="objectBoundingBox" x="-.04" y="-.03" width="1.07" height="1.13"><feOffset result="offOut" in="SourceAlpha" dy="6"/><feGaussianBlur result="blurOut" in="offOut" stdDeviation="5"/><feColorMatrix result="colorOut" in="blurOut" values="0 0 0 0 0 0 0 0 0 0 0 0 0 0 0 0 0 0 0.16862745098039217 0"/><feBlend in="SourceGraphic" in2="colorOut"/></filter><path fill="#3d4752" d="M108 0H70L1-190h34L89-25l56-165h34" id="aD"/><g id="D"><use transform="matrix(0.07407407407407408,0,0,0.07407407407407408,0,0)" xlink:href="#ay"/><use transform="matrix(0.07407407407407408,0,0,0.07407407407407408,17.25925925925926,0)" xlink:href="#aD"/><use transform="matrix(0.07407407407407408,0,0,0.07407407407407408,30.592592592592595,0)" xlink:href="#Y"/><use transform="matrix(0.07407407407407408,0,0,0.07407407407407408,45.40740740740741,0)" xlink:href="#aj"/><use transform="matrix(0.07407407407407408,0,0,0.07407407407407408,51.25925925925927,0)" xlink:href="#af"/><use transform="matrix(0.07407407407407408,0,0,0.07407407407407408,57.11111111111112,0)" xlink:href="#Y"/><use transform="matrix(0.07407407407407408,0,0,0.07407407407407408,71.92592592592594,0)" xlink:href="#Z"/></g><g id="E"><use transform="matrix(0.07407407407407408,0,0,0.07407407407407408,0,0)" xlink:href="#aa"/><use transform="matrix(0.07407407407407408,0,0,0.07407407407407408,13.333333333333336,0)" xlink:href="#Y"/><use transform="matrix(0.07407407407407408,0,0,0.07407407407407408,28.148148148148152,0)" xlink:href="#Z"/><use transform="matrix(0.07407407407407408,0,0,0.07407407407407408,36.96296296296297,0)" xlink:href="#Y"/><use transform="matrix(0.07407407407407408,0,0,0.07407407407407408,51.777777777777786,0)" xlink:href="#aa"/><use transform="matrix(0.07407407407407408,0,0,0.07407407407407408,65.11111111111111,0)" xlink:href="#ab"/><use transform="matrix(0.07407407407407408,0,0,0.07407407407407408,72.51851851851852,0)" xlink:href="#ac"/><use transform="matrix(0.07407407407407408,0,0,0.07407407407407408,87.33333333333334,0)" xlink:href="#Z"/><use transform="matrix(0.07407407407407408,0,0,0.07407407407407408,96.14814814814814,0)" xlink:href="#ac"/></g><path fill="#3d4752" d="M85-194c31 0 48 13 60 33l-1-100h32l1 261h-30c-2-10 0-23-3-31C134-8 116 4 85 4 32 4 16-35 15-94c0-66 23-100 70-100zm9 24c-40 0-46 34-46 75 0 40 6 74 45 74 42 0 51-32 51-76 0-42-9-74-50-73" id="aE"/><g id="F"><use transform="matrix(0.07407407407407408,0,0,0.07407407407407408,0,0)" xlink:href="#af"/><use transform="matrix(0.07407407407407408,0,0,0.07407407407407408,5.851851851851853,0)" xlink:href="#aq"/><use transform="matrix(0.07407407407407408,0,0,0.07407407407407408,20.666666666666668,0)" xlink:href="#aE"/><use transform="matrix(0.07407407407407408,0,0,0.07407407407407408,35.48148148148149,0)" xlink:href="#af"/><use transform="matrix(0.07407407407407408,0,0,0.07407407407407408,41.333333333333336,0)" xlink:href="#aD"/><use transform="matrix(0.07407407407407408,0,0,0.07407407407407408,54.666666666666686,0)" xlink:href="#af"/><use transform="matrix(0.07407407407407408,0,0,0.07407407407407408,60.51851851851853,0)" xlink:href="#aE"/><use transform="matrix(0.07407407407407408,0,0,0.07407407407407408,75.33333333333334,0)" xlink:href="#ai"/><use transform="matrix(0.07407407407407408,0,0,0.07407407407407408,90.14814814814817,0)" xlink:href="#Y"/><use transform="matrix(0.07407407407407408,0,0,0.07407407407407408,104.96296296296296,0)" xlink:href="#aj"/></g><filter id="C" filterUnits="objectBoundingBox" x="-.05" y="-.02" width="1.09" height="1.1"><feOffset result="offOut" in="SourceAlpha" dy="6"/><feGaussianBlur result="blurOut" in="offOut" stdDeviation="5"/><feColorMatrix result="colorOut" in="blurOut" values="0 0 0 0 0 0 0 0 0 0 0 0 0 0 0 0 0 0 0.16862745098039217 0"/><feBlend in="SourceGraphic" in2="colorOut"/></filter><g id="H"><use transform="matrix(0.07407407407407408,0,0,0.07407407407407408,0,0)" xlink:href="#aC"/><use transform="matrix(0.07407407407407408,0,0,0.07407407407407408,17.77777777777778,0)" xlink:href="#Z"/><use transform="matrix(0.07407407407407408,0,0,0.07407407407407408,26.592592592592595,0)" xlink:href="#Y"/></g><use transform="matrix(0.07407407407407408,0,0,0.07407407407407408,0,0)" xlink:href="#ak" id="I"/><g id="J"><use transform="matrix(0.07407407407407408,0,0,0.07407407407407408,0,0)" xlink:href="#ag"/><use transform="matrix(0.07407407407407408,0,0,0.07407407407407408,14.814814814814817,0)" xlink:href="#aj"/><use transform="matrix(0.07407407407407408,0,0,0.07407407407407408,20.666666666666668,0)" xlink:href="#ab"/><use transform="matrix(0.07407407407407408,0,0,0.07407407407407408,28.074074074074076,0)" xlink:href="#af"/><use transform="matrix(0.07407407407407408,0,0,0.07407407407407408,33.92592592592593,0)" xlink:href="#ae"/><use transform="matrix(0.07407407407407408,0,0,0.07407407407407408,56.07407407407408,0)" xlink:href="#ak"/></g><g id="K"><use transform="matrix(0.07407407407407408,0,0,0.07407407407407408,0,0)" xlink:href="#aa"/><use transform="matrix(0.07407407407407408,0,0,0.07407407407407408,13.333333333333336,0)" xlink:href="#Y"/><use transform="matrix(0.07407407407407408,0,0,0.07407407407407408,28.148148148148152,0)" xlink:href="#Z"/><use transform="matrix(0.07407407407407408,0,0,0.07407407407407408,36.96296296296297,0)" xlink:href="#Y"/><use transform="matrix(0.07407407407407408,0,0,0.07407407407407408,51.777777777777786,0)" xlink:href="#aa"/><use transform="matrix(0.07407407407407408,0,0,0.07407407407407408,65.11111111111111,0)" xlink:href="#ab"/><use transform="matrix(0.07407407407407408,0,0,0.07407407407407408,72.51851851851852,0)" xlink:href="#ac"/><use transform="matrix(0.07407407407407408,0,0,0.07407407407407408,87.33333333333334,0)" xlink:href="#Z"/><use transform="matrix(0.07407407407407408,0,0,0.07407407407407408,96.14814814814814,0)" xlink:href="#ac"/><use transform="matrix(0.07407407407407408,0,0,0.07407407407407408,110.96296296296296,0)" xlink:href="#al"/></g><filter id="G" filterUnits="objectBoundingBox" x="-.05" y="-.02" width="1.09" height="1.1"><feOffset result="offOut" in="SourceAlpha" dy="6"/><feGaussianBlur result="blurOut" in="offOut" stdDeviation="5"/><feColorMatrix result="colorOut" in="blurOut" values="0 0 0 0 0 0 0 0 0 0 0 0 0 0 0 0 0 0 0.16862745098039217 0"/><feBlend in="SourceGraphic" in2="colorOut"/></filter><g id="M"><use transform="matrix(0.07407407407407408,0,0,0.07407407407407408,0,0)" xlink:href="#aw"/><use transform="matrix(0.07407407407407408,0,0,0.07407407407407408,7.407407407407408,0)" xlink:href="#ae"/><use transform="matrix(0.07407407407407408,0,0,0.07407407407407408,29.55555555555556,0)" xlink:href="#an"/><use transform="matrix(0.07407407407407408,0,0,0.07407407407407408,44.37037037037039,0)" xlink:href="#Z"/><use transform="matrix(0.07407407407407408,0,0,0.07407407407407408,53.1851851851852,0)" xlink:href="#af"/><use transform="matrix(0.07407407407407408,0,0,0.07407407407407408,59.03703703703705,0)" xlink:href="#ae"/><use transform="matrix(0.07407407407407408,0,0,0.07407407407407408,81.18518518518522,0)" xlink:href="#ac"/></g><path fill="#3d4752" d="M177-190C167-65 218 103 67 71c-23-6-38-20-44-43l32-5c15 47 100 32 89-28v-30C133-14 115 1 83 1 29 1 15-40 15-95c0-56 16-97 71-98 29-1 48 16 59 35 1-10 0-23 2-32h30zM94-22c36 0 50-32 50-73 0-42-14-75-50-75-39 0-46 34-46 75s6 73 46 73" id="aF"/><g id="N"><use transform="matrix(0.07407407407407408,0,0,0.07407407407407408,0,0)" xlink:href="#ae"/><use transform="matrix(0.07407407407407408,0,0,0.07407407407407408,22.148148148148152,0)" xlink:href="#ac"/><use transform="matrix(0.07407407407407408,0,0,0.07407407407407408,36.96296296296297,0)" xlink:href="#aq"/><use transform="matrix(0.07407407407407408,0,0,0.07407407407407408,51.777777777777786,0)" xlink:href="#ah"/><use transform="matrix(0.07407407407407408,0,0,0.07407407407407408,65.11111111111111,0)" xlink:href="#Y"/><use transform="matrix(0.07407407407407408,0,0,0.07407407407407408,79.92592592592592,0)" xlink:href="#aF"/><use transform="matrix(0.07407407407407408,0,0,0.07407407407407408,94.74074074074073,0)" xlink:href="#ac"/><use transform="matrix(0.07407407407407408,0,0,0.07407407407407408,109.55555555555554,0)" xlink:href="#ae"/></g><path fill="#3d4752" d="M101-234c-31-9-42 10-38 44h38v23H63V0H32v-167H5v-23h27c-7-52 17-82 69-68v24" id="aG"/><g id="O"><use transform="matrix(0.07407407407407408,0,0,0.07407407407407408,0,0)" xlink:href="#aa"/><use transform="matrix(0.07407407407407408,0,0,0.07407407407407408,13.333333333333336,0)" xlink:href="#Z"/><use transform="matrix(0.07407407407407408,0,0,0.07407407407407408,22.148148148148152,0)" xlink:href="#af"/><use transform="matrix(0.07407407407407408,0,0,0.07407407407407408,28.000000000000007,0)" xlink:href="#an"/><use transform="matrix(0.07407407407407408,0,0,0.07407407407407408,42.814814814814824,0)" xlink:href="#ab"/><use transform="matrix(0.07407407407407408,0,0,0.07407407407407408,50.22222222222223,0)" xlink:href="#ak"/><use transform="matrix(0.07407407407407408,0,0,0.07407407407407408,65.03703703703704,0)" xlink:href="#aF"/><use transform="matrix(0.07407407407407408,0,0,0.07407407407407408,79.85185185185185,0)" xlink:href="#Z"/><use transform="matrix(0.07407407407407408,0,0,0.07407407407407408,88.66666666666666,0)" xlink:href="#Y"/><use transform="matrix(0.07407407407407408,0,0,0.07407407407407408,103.48148148148147,0)" xlink:href="#aG"/><use transform="matrix(0.07407407407407408,0,0,0.07407407407407408,110.88888888888887,0)" xlink:href="#Y"/><use transform="matrix(0.07407407407407408,0,0,0.07407407407407408,125.70370370370371,0)" xlink:href="#aE"/><use transform="matrix(0.07407407407407408,0,0,0.07407407407407408,140.5185185185185,0)" xlink:href="#Y"/></g><g id="P"><use transform="matrix(0.07407407407407408,0,0,0.07407407407407408,0,0)" xlink:href="#aq"/><use transform="matrix(0.07407407407407408,0,0,0.07407407407407408,14.814814814814817,0)" xlink:href="#Y"/></g><g id="Q"><use transform="matrix(0.07407407407407408,0,0,0.07407407407407408,0,0)" xlink:href="#ab"/><use transform="matrix(0.07407407407407408,0,0,0.07407407407407408,7.407407407407408,0)" xlink:href="#ac"/><use transform="matrix(0.07407407407407408,0,0,0.07407407407407408,22.222222222222225,0)" xlink:href="#aj"/><use transform="matrix(0.07407407407407408,0,0,0.07407407407407408,28.074074074074076,0)" xlink:href="#Y"/></g><filter id="L" filterUnits="objectBoundingBox" x="-.05" y="-.03" width="1.09" height="1.14"><feOffset result="offOut" in="SourceAlpha" dy="6"/><feGaussianBlur result="blurOut" in="offOut" stdDeviation="5"/><feColorMatrix result="colorOut" in="blurOut" values="0 0 0 0 0 0 0 0 0 0 0 0 0 0 0 0 0 0 0.16862745098039217 0"/><feBlend in="SourceGraphic" in2="colorOut"/></filter><path fill="#3d4752" d="M30-248c118-7 216 8 213 122C240-48 200 0 122 0H30v-248zM63-27c89 8 146-16 146-99s-60-101-146-95v194" id="aH"/><g id="R"><use transform="matrix(0.07407407407407408,0,0,0.07407407407407408,0,0)" xlink:href="#aH"/><use transform="matrix(0.07407407407407408,0,0,0.07407407407407408,19.185185185185187,0)" xlink:href="#ac"/><use transform="matrix(0.07407407407407408,0,0,0.07407407407407408,34,0)" xlink:href="#ah"/><use transform="matrix(0.07407407407407408,0,0,0.07407407407407408,47.33333333333334,0)" xlink:href="#aa"/><use transform="matrix(0.07407407407407408,0,0,0.07407407407407408,60.66666666666667,0)" xlink:href="#Z"/><use transform="matrix(0.07407407407407408,0,0,0.07407407407407408,69.4814814814815,0)" xlink:href="#af"/><use transform="matrix(0.07407407407407408,0,0,0.07407407407407408,75.33333333333334,0)" xlink:href="#an"/><use transform="matrix(0.07407407407407408,0,0,0.07407407407407408,90.14814814814817,0)" xlink:href="#ab"/><use transform="matrix(0.07407407407407408,0,0,0.07407407407407408,97.55555555555556,0)" xlink:href="#ak"/><use transform="matrix(0.07407407407407408,0,0,0.07407407407407408,112.37037037037038,0)" xlink:href="#aF"/><use transform="matrix(0.07407407407407408,0,0,0.07407407407407408,127.18518518518519,0)" xlink:href="#Z"/><use transform="matrix(0.07407407407407408,0,0,0.07407407407407408,136,0)" xlink:href="#Y"/><use transform="matrix(0.07407407407407408,0,0,0.07407407407407408,150.8148148148148,0)" xlink:href="#aG"/><use transform="matrix(0.07407407407407408,0,0,0.07407407407407408,158.22222222222226,0)" xlink:href="#Y"/><use transform="matrix(0.07407407407407408,0,0,0.07407407407407408,173.03703703703704,0)" xlink:href="#Z"/></g><g id="T"><use transform="matrix(0.07407407407407408,0,0,0.07407407407407408,0,0)" xlink:href="#aH"/><use transform="matrix(0.07407407407407408,0,0,0.07407407407407408,19.185185185185187,0)" xlink:href="#ac"/><use transform="matrix(0.07407407407407408,0,0,0.07407407407407408,34,0)" xlink:href="#ah"/><use transform="matrix(0.07407407407407408,0,0,0.07407407407407408,47.33333333333334,0)" xlink:href="#aa"/><use transform="matrix(0.07407407407407408,0,0,0.07407407407407408,60.66666666666667,0)" xlink:href="#Z"/><use transform="matrix(0.07407407407407408,0,0,0.07407407407407408,69.4814814814815,0)" xlink:href="#af"/><use transform="matrix(0.07407407407407408,0,0,0.07407407407407408,75.33333333333334,0)" xlink:href="#an"/><use transform="matrix(0.07407407407407408,0,0,0.07407407407407408,90.14814814814817,0)" xlink:href="#ab"/><use transform="matrix(0.07407407407407408,0,0,0.07407407407407408,97.55555555555556,0)" xlink:href="#ak"/><use transform="matrix(0.07407407407407408,0,0,0.07407407407407408,112.37037037037038,0)" xlink:href="#aF"/><use transform="matrix(0.07407407407407408,0,0,0.07407407407407408,127.18518518518519,0)" xlink:href="#Z"/><use transform="matrix(0.07407407407407408,0,0,0.07407407407407408,136,0)" xlink:href="#Y"/><use transform="matrix(0.07407407407407408,0,0,0.07407407407407408,150.8148148148148,0)" xlink:href="#aG"/><use transform="matrix(0.07407407407407408,0,0,0.07407407407407408,158.22222222222226,0)" xlink:href="#Y"/><use transform="matrix(0.07407407407407408,0,0,0.07407407407407408,173.03703703703704,0)" xlink:href="#Z"/></g><filter id="S" filterUnits="objectBoundingBox" x="-.04" y="-.03" width="1.09" height="1.13"><feOffset result="offOut" in="SourceAlpha" dy="6"/><feGaussianBlur result="blurOut" in="offOut" stdDeviation="5"/><feColorMatrix result="colorOut" in="blurOut" values="0 0 0 0 0 0 0 0 0 0 0 0 0 0 0 0 0 0 0.16862745098039217 0"/><feBlend in="SourceGraphic" in2="colorOut"/></filter><g id="U"><use transform="matrix(0.07407407407407408,0,0,0.07407407407407408,0,0)" xlink:href="#aE"/><use transform="matrix(0.07407407407407408,0,0,0.07407407407407408,14.814814814814817,0)" xlink:href="#ac"/><use transform="matrix(0.07407407407407408,0,0,0.07407407407407408,29.629629629629633,0)" xlink:href="#ah"/><use transform="matrix(0.07407407407407408,0,0,0.07407407407407408,42.96296296296297,0)" xlink:href="#aa"/><use transform="matrix(0.07407407407407408,0,0,0.07407407407407408,56.296296296296305,0)" xlink:href="#Z"/><use transform="matrix(0.07407407407407408,0,0,0.07407407407407408,65.11111111111111,0)" xlink:href="#af"/><use transform="matrix(0.07407407407407408,0,0,0.07407407407407408,70.96296296296296,0)" xlink:href="#an"/><use transform="matrix(0.07407407407407408,0,0,0.07407407407407408,85.77777777777777,0)" xlink:href="#ab"/><use transform="matrix(0.07407407407407408,0,0,0.07407407407407408,93.18518518518518,0)" xlink:href="#ak"/><use transform="matrix(0.07407407407407408,0,0,0.07407407407407408,108,0)" xlink:href="#aF"/><use transform="matrix(0.07407407407407408,0,0,0.07407407407407408,122.81481481481481,0)" xlink:href="#Z"/><use transform="matrix(0.07407407407407408,0,0,0.07407407407407408,131.62962962962962,0)" xlink:href="#Y"/><use transform="matrix(0.07407407407407408,0,0,0.07407407407407408,146.44444444444443,0)" xlink:href="#aG"/><use transform="matrix(0.07407407407407408,0,0,0.07407407407407408,153.85185185185185,0)" xlink:href="#Y"/><use transform="matrix(0.07407407407407408,0,0,0.07407407407407408,168.66666666666666,0)" xlink:href="#aE"/><use transform="matrix(0.07407407407407408,0,0,0.07407407407407408,183.48148148148147,0)" xlink:href="#Y"/></g><g id="V"><use transform="matrix(0.07407407407407408,0,0,0.07407407407407408,0,0)" xlink:href="#aq"/><use transform="matrix(0.07407407407407408,0,0,0.07407407407407408,14.814814814814817,0)" xlink:href="#Y"/></g><filter id="W" filterUnits="objectBoundingBox" x="-.04" y="-.05" width="1.09" height="1.25"><feOffset result="offOut" in="SourceAlpha" dy="6"/><feGaussianBlur result="blurOut" in="offOut" stdDeviation="5"/><feColorMatrix result="colorOut" in="blurOut" values="0 0 0 0 0 0 0 0 0 0 0 0 0 0 0 0 0 0 0.16862745098039217 0"/><feBlend in="SourceGraphic" in2="colorOut"/></filter></defs></g></svg>