<svg xmlns="http://www.w3.org/2000/svg" xmlns:xlink="http://www.w3.org/1999/xlink" xmlns:lucid="lucid" width="1360" height="1760"><g transform="translate(0 0)" lucid:page-tab-id="YGcM5DNywbTK"><g filter="url(#a)"><path d="M1063.9 545.16c3.36-2.85 8.84-2.85 12.2 0l107.46 90.68c3.37 2.85 3.37 7.47 0 10.32l-107.45 90.68c-3.36 2.85-8.84 2.85-12.2 0l-107.46-90.68c-3.37-2.85-3.37-7.47 0-10.32z" stroke="#3d4752" stroke-width="4" fill="#fff"/><use xlink:href="#b" transform="matrix(1,0,0,1,965.3305785123966,555) translate(13.999999999999986 73.73333333333333)"/><use xlink:href="#c" transform="matrix(1,0,0,1,965.3305785123966,555) translate(83.55555555555554 73.73333333333333)"/><use xlink:href="#d" transform="matrix(1,0,0,1,965.3305785123966,555) translate(129.4074074074074 73.73333333333333)"/><use xlink:href="#e" transform="matrix(1,0,0,1,965.3305785123966,555) translate(181.18518518518522 73.73333333333333)"/><use xlink:href="#f" transform="matrix(1,0,0,1,965.3305785123966,555) translate(58.37037037037037 108.93333333333334)"/></g><g filter="url(#g)"><path d="M342.62 40C362 40 377.7 58.28 377.7 80.84c0 22.55-15.7 40.84-35.08 40.84H237.38c-19.37 0-35.08-18.3-35.08-40.84C202.3 58.28 218 40 237.38 40z" stroke="#3d4752" stroke-width="4" fill="#ffdba9"/><use xlink:href="#h" transform="matrix(1,0,0,1,217.29989516299298,55) translate(30.111111111111107 31.333333333333336)"/></g><g filter="url(#i)"><path d="M284.25 225.4c3.27-3 8.56-3 11.83 0l98 89.2c3.27 3 3.27 7.8 0 10.8l-98 89.2c-3.27 3-8.56 3-11.83 0l-98-89.2c-3.27-3-3.27-7.8 0-10.8z" stroke="#3d4752" stroke-width="4" fill="#fff"/><use xlink:href="#j" transform="matrix(1,0,0,1,195.3305785123967,235) translate(5.148148148148138 90.33333333333334)"/><use xlink:href="#k" transform="matrix(1,0,0,1,195.3305785123967,235) translate(98.33333333333333 90.33333333333334)"/><use xlink:href="#l" transform="matrix(1,0,0,1,195.3305785123967,235) translate(128.7037037037037 90.33333333333334)"/></g><path d="M290 123.68v48.77h-.08v27.3" stroke="#3d4752" stroke-width="4" fill="none"/><path d="M292 123.68h-4v-2h4zM289.92 214.74l-4.63-14.26h9.26z" fill="#3d4752"/><path d="M289.92 221.2l-7.4-22.72h14.8zm-1.88-18.72l1.88 5.8 1.88-5.8z" fill="#3d4752"/><g filter="url(#m)"><path d="M1136 1380c24.3 0 44 17.9 44 40s-19.7 40-44 40h-132c-24.3 0-44-17.9-44-40s19.7-40 44-40z" stroke="#3d4752" stroke-width="4" fill="#ffdba9"/><use xlink:href="#n" transform="matrix(1,0,0,1,975,1395) translate(73.38888888888889 30.333333333333336)"/></g><g filter="url(#o)"><path d="M673.57 225.05c3.37-2.86 8.83-2.86 12.2 0l107.47 91.06c3.37 2.86 3.37 7.5 0 10.35L685.77 417.5c-3.37 2.86-8.83 2.86-12.2 0L566.1 326.46c-3.37-2.86-3.37-7.5 0-10.34z" stroke="#3d4752" stroke-width="4" fill="#fff"/><use xlink:href="#j" transform="matrix(1,0,0,1,575,234.87877618706568) translate(46.925925925925924 74.23333333333333)"/><use xlink:href="#p" transform="matrix(1,0,0,1,575,234.87877618706568) translate(140.11111111111111 74.23333333333333)"/><use xlink:href="#q" transform="matrix(1,0,0,1,575,234.87877618706568) translate(52.48148148148148 109.43333333333334)"/></g><path d="M143.82 311.8l.5 2.53 1.3 1.9 1.88 1.26 2.52.5h31.8v4h-32.2l-3.7-.75-3.2-2.15-2.15-3.2-.75-3.7V207.18h4zm35-228.96h-28.8l-2.52.5-1.9 1.28-1.27 1.9-.5 2.52v86.14h-4V88.64l.74-3.7 2.16-3.2 3.2-2.15 3.7-.76h29.2zM183.96 318.5l-.16 1.83.3 1.67h-2.28v-4h2.32zM193.83 80.84l-14.27 4.64V76.2z" fill="#494949"/><path d="M200.3 80.84l-22.74 7.4v-14.8zm-18.74 1.88l5.8-1.88-5.8-1.88z" fill="#494949"/><use xlink:href="#r" transform="matrix(1,0,0,1,112.9720504595858,175.18316884808854) translate(0.004999999999999005 21.333333333333336)"/><path d="M540.15 319.28v4h-36.42v-4zM398.5 322v-4h57.9v4z" fill="#494949"/><path d="M398.5 322h-2.3l.17-.5.16-1.83-.3-1.67h2.28zM555.15 321.28l-14.27 4.63v-9.26z" fill="#494949"/><path d="M561.62 321.28l-22.74 7.4v-14.8zm-18.74 1.88l5.8-1.88-5.8-1.88z" fill="#494949"/><use xlink:href="#s" transform="matrix(1,0,0,1,456.396281921941,304.63938809353283) translate(0.004999999999999005 21.333333333333336)"/><path d="M936.53 322.5v4h-35v-4zm-138.8.78v-4h56.46v4zM797.72 323.28h-2.34l.28-.88.08-1.64-.32-1.48h2.3zM951.53 324.5l-14.27 4.64v-9.28z" fill="#494949"/><path d="M958 324.5l-22.74 7.4v-14.8zm-18.74 1.88l5.8-1.88-5.8-1.88z" fill="#494949"/><use xlink:href="#s" transform="matrix(1,0,0,1,854.1931441014036,306.8893880935328) translate(0.004999999999999005 21.333333333333336)"/><g filter="url(#t)"><path d="M960 231.1c0-4.42 3.58-8 8-8h204c4.42 0 8 3.58 8 8v186.8c0 4.42-3.58 8-8 8H968c-4.42 0-8-3.58-8-8z" stroke="#3d4752" stroke-width="4" fill="#fff"/><use xlink:href="#u" transform="matrix(1,0,0,1,965,228.09999999999997) translate(73.96296296296296 49.03333333333334)"/><use xlink:href="#v" transform="matrix(1,0,0,1,965,228.09999999999997) translate(43.29629629629629 84.23333333333335)"/><use xlink:href="#w" transform="matrix(1,0,0,1,965,228.09999999999997) translate(53.925925925925924 119.43333333333334)"/><use xlink:href="#x" transform="matrix(1,0,0,1,965,228.09999999999997) translate(44.81481481481481 154.63333333333335)"/></g><path d="M1070 221.1V88.84c0-4.42-3.58-8-8-8H401.17" stroke="#494949" stroke-width="4" fill="none"/><path d="M1072 223.1h-4v-2h4zM400.44 85.48l-14.27-4.64 14.27-4.64z" fill="#494949"/><path d="M402.44 88.23l-22.74-7.4 22.74-7.38zm-9.8-7.4l5.8 1.9v-3.77z" fill="#494949"/><g filter="url(#y)"><path d="M570 848c0-4.42 3.58-8 8-8h204c4.42 0 8 3.58 8 8v184c0 4.42-3.58 8-8 8H578c-4.42 0-8-3.58-8-8z" stroke="#3d4752" stroke-width="4" fill="#fff"/><use xlink:href="#z" transform="matrix(1,0,0,1,575,845) translate(25.574074074074076 82.73333333333333)"/><use xlink:href="#A" transform="matrix(1,0,0,1,575,845) translate(115.79629629629629 82.73333333333333)"/><use xlink:href="#B" transform="matrix(1,0,0,1,575,845) translate(18.981481481481467 117.93333333333334)"/><use xlink:href="#C" transform="matrix(1,0,0,1,575,845) translate(122.53703703703705 117.93333333333334)"/></g><path d="M846.15 791.45H688.2l-2.53.5-1.9 1.3-1.26 1.87-.5 2.53v18.88h-4v-19.28l.75-3.7 2.15-3.2 3.2-2.15 3.7-.75h158.35zm225.85-9.8l-.75 3.7-2.15 3.2-3.2 2.15-3.7.75H903.85v-4h157.95l2.53-.5 1.9-1.28 1.26-1.9.5-2.52V740.9h4z" fill="#494949"/><path d="M1069.13 738.94l2.67-.12.2-.06v2.14h-4v-2.2zM680 831.53l-4.64-14.27h9.28z" fill="#494949"/><path d="M680 838l-7.4-22.74h14.8zm-1.88-18.74l1.88 5.8 1.88-5.8z" fill="#494949"/><use xlink:href="#r" transform="matrix(1,0,0,1,846.1481481481482,773.4514769832663) translate(0.004999999999999005 21.333333333333336)"/><path d="M1230.04 932.2l-.74 3.7-2.16 3.2-3.2 2.15-3.7.75h-16.77v-4h16.37l2.53-.5 1.9-1.28 1.26-1.9.5-2.52V809.52h4zm-6.1-292.45l3.2 2.15 2.16 3.2.74 3.7v128.72h-4V649.2l-.5-2.53-1.28-1.9-1.9-1.26-2.52-.5h-31.8v-4h32.2zM1188.04 643h-2.34l.3-.9.07-1.62-.33-1.48h2.3zM1202.74 944.64l-14.27-4.64 14.27-4.64z" fill="#494949"/><path d="M1204.74 947.4L1182 940l22.74-7.4zm-9.8-7.4l5.8 1.88v-3.76z" fill="#494949"/><use xlink:href="#s" transform="matrix(1,0,0,1,1204.377162819335,777.5219147430008) translate(0.004999999999999005 21.333333333333336)"/><g filter="url(#y)"><path d="M960 848c0-4.42 3.58-8 8-8h204c4.42 0 8 3.58 8 8v184c0 4.42-3.58 8-8 8H968c-4.42 0-8-3.58-8-8z" stroke="#3d4752" stroke-width="4" fill="#fff"/><use xlink:href="#D" transform="matrix(1,0,0,1,965,845) translate(23.388888888888886 100.33333333333334)"/><use xlink:href="#E" transform="matrix(1,0,0,1,965,845) translate(109.16666666666667 100.33333333333334)"/></g><g filter="url(#F)"><path d="M180 548c0-4.42 3.58-8 8-8h204c4.42 0 8 3.58 8 8v185.88c0 4.42-3.58 8-8 8H188c-4.42 0-8-3.58-8-8z" stroke="#3d4752" stroke-width="4" fill="#fff"/><use xlink:href="#G" transform="matrix(1,0,0,1,185,545) translate(15.481481481481467 101.33333333333334)"/><use xlink:href="#H" transform="matrix(1,0,0,1,185,545) translate(104.29629629629629 101.33333333333334)"/></g><path d="M455.98 481.8H298.2l-2.53.5-1.9 1.27-1.26 1.9-.5 2.52v28.53h-4V487.6l.75-3.7 2.15-3.2 3.2-2.16 3.7-.75h158.18zm225.7-9.8l-.76 3.7-2.15 3.2-3.2 2.14-3.7.75H513.7v-4h157.77l2.53-.52 1.9-1.28 1.26-1.88.5-2.53v-50.02h4z" fill="#494949"/><path d="M678.83 419.6l2.65-.1.2-.07v2.15h-4v-2.2zM290 531.53l-4.64-14.27h9.28z" fill="#494949"/><path d="M290 538l-7.4-22.74h14.8zm-1.88-18.74l1.88 5.8 1.88-5.8z" fill="#494949"/><use xlink:href="#r" transform="matrix(1,0,0,1,455.98285889194983,463.7881461146301) translate(0.004999999999999005 21.333333333333336)"/><path d="M958 940H813.47" stroke="#494949" stroke-width="4" fill="none"/><path d="M960 942h-2v-4h2zM812.74 944.64L798.47 940l14.27-4.64z" fill="#494949"/><path d="M814.74 947.4L792 940l22.74-7.4zm-9.8-7.4l5.8 1.88v-3.76z" fill="#494949"/><g filter="url(#I)"><path d="M284.12 1202.62c3.25-3 8.5-3 11.76 0l98.24 90.56c3.25 3 3.25 7.85 0 10.84l-98.24 90.56c-3.25 3-8.5 3-11.76 0l-98.24-90.56c-3.25-3-3.25-7.85 0-10.84z" stroke="#3d4752" stroke-width="4" fill="#fff"/><use xlink:href="#J" transform="matrix(1,0,0,1,185,1202.2) translate(6.648148148148124 101.83333333333334)"/><use xlink:href="#K" transform="matrix(1,0,0,1,185,1202.2) translate(83.6111111111111 101.83333333333334)"/><use xlink:href="#L" transform="matrix(1,0,0,1,185,1202.2) translate(114.72222222222221 101.83333333333334)"/><use xlink:href="#M" transform="matrix(1,0,0,1,185,1202.2) translate(151.75925925925927 101.83333333333334)"/><use xlink:href="#N" transform="matrix(1,0,0,1,185,1202.2) translate(174.72222222222223 101.83333333333334)"/></g><path d="M402 640.94h82.97c.02 0 .03 0 .03.03 0 .02 0 .03.03.03h61.5" stroke="#494949" stroke-width="4" fill="none"/><path d="M402 642.94h-2v-4h2zM561.53 641l-14.27 4.64v-9.28z" fill="#494949"/><path d="M568 641l-22.74 7.4v-14.8zm-18.74 1.88l5.8-1.88-5.8-1.88z" fill="#494949"/><g filter="url(#O)"><path d="M570 548c0-4.42 3.58-8 8-8h204c4.42 0 8 3.58 8 8v186c0 4.42-3.58 8-8 8H578c-4.42 0-8-3.58-8-8z" stroke="#3d4752" stroke-width="4" fill="#fff"/><use xlink:href="#P" transform="matrix(1,0,0,1,575,545) translate(11.111111111111114 83.73333333333333)"/><use xlink:href="#Q" transform="matrix(1,0,0,1,575,545) translate(129.25925925925924 83.73333333333333)"/><use xlink:href="#R" transform="matrix(1,0,0,1,575,545) translate(37.66666666666666 118.93333333333334)"/><use xlink:href="#S" transform="matrix(1,0,0,1,575,545) translate(111.66666666666667 118.93333333333334)"/><use xlink:href="#T" transform="matrix(1,0,0,1,575,545) translate(157.51851851851853 118.93333333333334)"/></g><path d="M792 641h79.95s.03 0 .03.03c0 .02 0 .03.03.03h58.48" stroke="#494949" stroke-width="4" fill="none"/><path d="M792 643h-2v-4h2zM945.48 641.06l-14.26 4.64v-9.28z" fill="#494949"/><path d="M951.95 641.06l-22.73 7.4v-14.8zm-18.73 1.88l5.8-1.88-5.8-1.88z" fill="#494949"/><path d="M568 940H423.47" stroke="#494949" stroke-width="4" fill="none"/><path d="M570 942h-2v-4h2zM422.74 944.64L408.47 940l14.27-4.64z" fill="#494949"/><path d="M424.74 947.4L402 940l22.74-7.4zm-9.8-7.4l5.8 1.88v-3.76z" fill="#494949"/><g filter="url(#U)"><path d="M180 848c0-4.42 3.58-8 8-8h204c4.42 0 8 3.58 8 8v184c0 4.42-3.58 8-8 8H188c-4.42 0-8-3.58-8-8z" stroke="#3d4752" stroke-width="4" fill="#fff"/><use xlink:href="#D" transform="matrix(1,0,0,1,185,845) translate(11.740740740740733 82.73333333333333)"/><use xlink:href="#V" transform="matrix(1,0,0,1,185,845) translate(97.51851851851852 82.73333333333333)"/><use xlink:href="#W" transform="matrix(1,0,0,1,185,845) translate(170.11111111111111 82.73333333333333)"/><use xlink:href="#X" transform="matrix(1,0,0,1,185,845) translate(70.18518518518518 117.93333333333334)"/></g><path d="M290 1042v134.94" stroke="#494949" stroke-width="4" fill="none"/><path d="M292 1042h-4v-2h4zM290 1191.94l-4.64-14.27h9.28z" fill="#494949"/><path d="M290 1198.4l-7.4-22.73h14.8zm-1.88-18.73l1.88 5.8 1.88-5.8zM546.53 1298v4h-39.6v-4zm-148 2.6v-4h61.07v4zM398.53 1300.6h-2.3l.15-.44.17-1.85-.3-1.7h2.28zM561.53 1300l-14.27 4.64v-9.28z" fill="#494949"/><path d="M568 1300l-22.74 7.4v-14.8zm-18.74 1.88l5.8-1.88-5.8-1.88z" fill="#494949"/><use xlink:href="#Y" transform="matrix(1,0,0,1,459.59856468397044,1283.3) translate(0.004999999999999005 21.333333333333336)"/><g filter="url(#U)"><path d="M570 1208c0-4.42 3.58-8 8-8h204c4.42 0 8 3.58 8 8v184c0 4.42-3.58 8-8 8H578c-4.42 0-8-3.58-8-8z" stroke="#3d4752" stroke-width="4" fill="#fff"/><use xlink:href="#Z" transform="matrix(1,0,0,1,575,1205) translate(56.999999999999986 65.13333333333333)"/><use xlink:href="#aa" transform="matrix(1,0,0,1,575,1205) translate(39.14814814814815 100.33333333333334)"/><use xlink:href="#ab" transform="matrix(1,0,0,1,575,1205) translate(15 135.53333333333333)"/><use xlink:href="#ac" transform="matrix(1,0,0,1,575,1205) translate(111.66666666666667 135.53333333333333)"/></g><path d="M292 1591.8l.5 2.53 1.28 1.9 1.9 1.26 2.52.5h1.34v4h-1.74l-3.7-.75-3.2-2.15-2.15-3.2-.75-3.7v-193.4h4zm254.53 6.2v4H357.25v-4z" fill="#494949"/><path d="M289.63 1396.82l2.35-.22.02 2.2h-4v-2.27zM561.53 1600l-14.27 4.64v-9.28z" fill="#494949"/><path d="M568 1600l-22.74 7.4v-14.8zm-18.74 1.88l5.8-1.88-5.8-1.88z" fill="#494949"/><use xlink:href="#ad" transform="matrix(1,0,0,1,299.5436796193562,1584) translate(0.004999999999999005 21.333333333333336)"/><g filter="url(#U)"><path d="M570 1508c0-4.42 3.58-8 8-8h204c4.42 0 8 3.58 8 8v184c0 4.42-3.58 8-8 8H578c-4.42 0-8-3.58-8-8z" stroke="#3d4752" stroke-width="4" fill="#fff"/><use xlink:href="#Z" transform="matrix(1,0,0,1,575,1505) translate(56.999999999999986 65.13333333333333)"/><use xlink:href="#aa" transform="matrix(1,0,0,1,575,1505) translate(39.14814814814815 100.33333333333334)"/><use xlink:href="#ab" transform="matrix(1,0,0,1,575,1505) translate(6.1111111111111 135.53333333333333)"/><use xlink:href="#ae" transform="matrix(1,0,0,1,575,1505) translate(102.77777777777777 135.53333333333333)"/></g><path d="M792 1600h270c4.42 0 8-3.58 8-8v-108.53" stroke="#494949" stroke-width="4" fill="none"/><path d="M792 1602h-2v-4h2zM1074.64 1482.74h-9.28l4.64-14.27z" fill="#494949"/><path d="M1077.4 1484.74h-14.8l7.4-22.74zm-9.28-4h3.76l-1.88-5.8z" fill="#494949"/><path d="M792 1300h270c4.42 0 8 3.58 8 8v48.53" stroke="#494949" stroke-width="4" fill="none"/><path d="M792 1302h-2v-4h2zM1070 1371.53l-4.64-14.27h9.28z" fill="#494949"/><path d="M1070 1378l-7.4-22.74h14.8zm-1.88-18.74l1.88 5.8 1.88-5.8z" fill="#494949"/><defs><path fill="#3d4752" d="M212-179c-10-28-35-45-73-45-59 0-87 40-87 99 0 60 29 101 89 101 43 0 62-24 78-52l27 14C228-24 195 4 139 4 59 4 22-46 18-125c-6-104 99-153 187-111 19 9 31 26 39 46" id="af"/><path fill="#3d4752" d="M141-36C126-15 110 5 73 4 37 3 15-17 15-53c-1-64 63-63 125-63 3-35-9-54-41-54-24 1-41 7-42 31l-33-3c5-37 33-52 76-52 45 0 72 20 72 64v82c-1 20 7 32 28 27v20c-31 9-61-2-59-35zM48-53c0 20 12 33 32 33 41-3 63-29 60-74-43 2-92-5-92 41" id="ag"/><path fill="#3d4752" d="M135-143c-3-34-86-38-87 0 15 53 115 12 119 90S17 21 10-45l28-5c4 36 97 45 98 0-10-56-113-15-118-90-4-57 82-63 122-42 12 7 21 19 24 35" id="ah"/><g id="b"><use transform="matrix(0.07407407407407408,0,0,0.07407407407407408,0,0)" xlink:href="#af"/><use transform="matrix(0.07407407407407408,0,0,0.07407407407407408,19.185185185185187,0)" xlink:href="#ag"/><use transform="matrix(0.07407407407407408,0,0,0.07407407407407408,34,0)" xlink:href="#ah"/><use transform="matrix(0.07407407407407408,0,0,0.07407407407407408,47.33333333333334,0)" xlink:href="#ag"/></g><path fill="#3d4752" d="M115-194c55 1 70 41 70 98S169 2 115 4C84 4 66-9 55-30l1 105H24l-1-265h31l2 30c10-21 28-34 59-34zm-8 174c40 0 45-34 45-75s-6-73-45-74c-42 0-51 32-51 76 0 43 10 73 51 73" id="ai"/><path fill="#3d4752" d="M114-163C36-179 61-72 57 0H25l-1-190h30c1 12-1 29 2 39 6-27 23-49 58-41v29" id="aj"/><g id="c"><use transform="matrix(0.07407407407407408,0,0,0.07407407407407408,0,0)" xlink:href="#ai"/><use transform="matrix(0.07407407407407408,0,0,0.07407407407407408,14.814814814814817,0)" xlink:href="#ag"/><use transform="matrix(0.07407407407407408,0,0,0.07407407407407408,29.629629629629633,0)" xlink:href="#aj"/></g><path fill="#3d4752" d="M59-47c-2 24 18 29 38 22v24C64 9 27 4 27-40v-127H5v-23h24l9-43h21v43h35v23H59v120" id="ak"/><path fill="#3d4752" d="M100-194c63 0 86 42 84 106H49c0 40 14 67 53 68 26 1 43-12 49-29l28 8c-11 28-37 45-77 45C44 4 14-33 15-96c1-61 26-98 85-98zm52 81c6-60-76-77-97-28-3 7-6 17-6 28h103" id="al"/><path fill="#3d4752" d="M210-169c-67 3-38 105-44 169h-31v-121c0-29-5-50-35-48C34-165 62-65 56 0H25l-1-190h30c1 10-1 24 2 32 10-44 99-50 107 0 11-21 27-35 58-36 85-2 47 119 55 194h-31v-121c0-29-5-49-35-48" id="am"/><g id="d"><use transform="matrix(0.07407407407407408,0,0,0.07407407407407408,0,0)" xlink:href="#ak"/><use transform="matrix(0.07407407407407408,0,0,0.07407407407407408,7.407407407407408,0)" xlink:href="#al"/><use transform="matrix(0.07407407407407408,0,0,0.07407407407407408,22.222222222222225,0)" xlink:href="#am"/></g><path fill="#3d4752" d="M101-251c82-7 93 87 43 132L82-64C71-53 59-42 53-27h129V0H18c2-99 128-94 128-182 0-28-16-43-45-43s-46 15-49 41l-32-3c6-41 34-60 81-64" id="an"/><use transform="matrix(0.07407407407407408,0,0,0.07407407407407408,0,0)" xlink:href="#an" id="e"/><path fill="#3d4752" d="M85-194c31 0 48 13 60 33l-1-100h32l1 261h-30c-2-10 0-23-3-31C134-8 116 4 85 4 32 4 16-35 15-94c0-66 23-100 70-100zm9 24c-40 0-46 34-46 75 0 40 6 74 45 74 42 0 51-32 51-76 0-42-9-74-50-73" id="ao"/><path fill="#3d4752" d="M34 0v-190h32V0H34zM24-211c8-23 27-35 38-54h36v5l-58 49H24" id="ap"/><path fill="#3d4752" d="M177-190C167-65 218 103 67 71c-23-6-38-20-44-43l32-5c15 47 100 32 89-28v-30C133-14 115 1 83 1 29 1 15-40 15-95c0-56 16-97 71-98 29-1 48 16 59 35 1-10 0-23 2-32h30zM94-22c36 0 50-32 50-73 0-42-14-75-50-75-39 0-46 34-46 75s6 73 46 73" id="aq"/><path fill="#3d4752" d="M24-231v-30h32v30H24zM24 0v-190h32V0H24" id="ar"/><path fill="#3d4752" d="M100-194c62-1 85 37 85 99 1 63-27 99-86 99S16-35 15-95c0-66 28-99 85-99zM99-20c44 1 53-31 53-75 0-43-8-75-51-75s-53 32-53 75 10 74 51 75" id="as"/><path fill="#3d4752" d="M103-251c84 0 111 97 45 133-19 10-37 24-39 52H78c0-63 77-55 77-114 0-30-21-42-52-43-32 0-53 17-56 46l-32-2c7-45 34-72 88-72zM77 0v-35h34V0H77" id="at"/><g id="f"><use transform="matrix(0.07407407407407408,0,0,0.07407407407407408,0,0)" xlink:href="#ao"/><use transform="matrix(0.07407407407407408,0,0,0.07407407407407408,14.814814814814817,0)" xlink:href="#ap"/><use transform="matrix(0.07407407407407408,0,0,0.07407407407407408,22.222222222222225,0)" xlink:href="#aq"/><use transform="matrix(0.07407407407407408,0,0,0.07407407407407408,37.03703703703704,0)" xlink:href="#ar"/><use transform="matrix(0.07407407407407408,0,0,0.07407407407407408,42.88888888888889,0)" xlink:href="#ak"/><use transform="matrix(0.07407407407407408,0,0,0.07407407407407408,50.296296296296305,0)" xlink:href="#as"/><use transform="matrix(0.07407407407407408,0,0,0.07407407407407408,65.11111111111111,0)" xlink:href="#ah"/><use transform="matrix(0.07407407407407408,0,0,0.07407407407407408,78.44444444444446,0)" xlink:href="#at"/></g><filter id="a" filterUnits="objectBoundingBox" x="-.04" y="-.02" width="1.08" height="1.1"><feOffset result="offOut" in="SourceAlpha" dy="6"/><feGaussianBlur result="blurOut" in="offOut" stdDeviation="5"/><feColorMatrix result="colorOut" in="blurOut" values="0 0 0 0 0 0 0 0 0 0 0 0 0 0 0 0 0 0 0.16862745098039217 0"/><feBlend in="SourceGraphic" in2="colorOut"/></filter><path fill="#3d4752" d="M30-248c87 1 191-15 191 75 0 78-77 80-158 76V0H30v-248zm33 125c57 0 124 11 124-50 0-59-68-47-124-48v98" id="au"/><g id="h"><use transform="matrix(0.07407407407407408,0,0,0.07407407407407408,0,0)" xlink:href="#au"/><use transform="matrix(0.07407407407407408,0,0,0.07407407407407408,17.77777777777778,0)" xlink:href="#aj"/><use transform="matrix(0.07407407407407408,0,0,0.07407407407407408,26.592592592592595,0)" xlink:href="#as"/><use transform="matrix(0.07407407407407408,0,0,0.07407407407407408,41.40740740740741,0)" xlink:href="#am"/><use transform="matrix(0.07407407407407408,0,0,0.07407407407407408,63.555555555555564,0)" xlink:href="#ai"/><use transform="matrix(0.07407407407407408,0,0,0.07407407407407408,78.37037037037038,0)" xlink:href="#ak"/></g><filter id="g" filterUnits="objectBoundingBox" x="-.06" y="-.05" width="1.11" height="1.24"><feOffset result="offOut" in="SourceAlpha" dy="6"/><feGaussianBlur result="blurOut" in="offOut" stdDeviation="5"/><feColorMatrix result="colorOut" in="blurOut" values="0 0 0 0 0 0 0 0 0 0 0 0 0 0 0 0 0 0 0.16862745098039217 0"/><feBlend in="SourceGraphic" in2="colorOut"/></filter><g id="j"><use transform="matrix(0.07407407407407408,0,0,0.07407407407407408,0,0)" xlink:href="#au"/><use transform="matrix(0.07407407407407408,0,0,0.07407407407407408,17.77777777777778,0)" xlink:href="#aj"/><use transform="matrix(0.07407407407407408,0,0,0.07407407407407408,26.592592592592595,0)" xlink:href="#as"/><use transform="matrix(0.07407407407407408,0,0,0.07407407407407408,41.40740740740741,0)" xlink:href="#am"/><use transform="matrix(0.07407407407407408,0,0,0.07407407407407408,63.555555555555564,0)" xlink:href="#ai"/><use transform="matrix(0.07407407407407408,0,0,0.07407407407407408,78.37037037037038,0)" xlink:href="#ak"/></g><path fill="#3d4752" d="M63-70H37l-4-178h34zM33 0v-35h34V0H33" id="av"/><path fill="#3d4752" d="M18-150v-26h174v26H18zm0 90v-26h174v26H18" id="aw"/><g id="k"><use transform="matrix(0.07407407407407408,0,0,0.07407407407407408,0,0)" xlink:href="#av"/><use transform="matrix(0.07407407407407408,0,0,0.07407407407407408,7.407407407407408,0)" xlink:href="#aw"/></g><path fill="#3d4752" d="M117-194c89-4 53 116 60 194h-32v-121c0-31-8-49-39-48C34-167 62-67 57 0H25l-1-190h30c1 10-1 24 2 32 11-22 29-35 61-36" id="ax"/><path fill="#3d4752" d="M84 4C-5 8 30-112 23-190h32v120c0 31 7 50 39 49 72-2 45-101 50-169h31l1 190h-30c-1-10 1-25-2-33-11 22-28 36-60 37" id="ay"/><path fill="#3d4752" d="M24 0v-261h32V0H24" id="az"/><g id="l"><use transform="matrix(0.07407407407407408,0,0,0.07407407407407408,0,0)" xlink:href="#ax"/><use transform="matrix(0.07407407407407408,0,0,0.07407407407407408,14.814814814814817,0)" xlink:href="#ay"/><use transform="matrix(0.07407407407407408,0,0,0.07407407407407408,29.629629629629633,0)" xlink:href="#az"/><use transform="matrix(0.07407407407407408,0,0,0.07407407407407408,35.48148148148149,0)" xlink:href="#az"/><use transform="matrix(0.07407407407407408,0,0,0.07407407407407408,41.333333333333336,0)" xlink:href="#at"/></g><filter id="i" filterUnits="objectBoundingBox" x="-.05" y="-.02" width="1.09" height="1.1"><feOffset result="offOut" in="SourceAlpha" dy="6"/><feGaussianBlur result="blurOut" in="offOut" stdDeviation="5"/><feColorMatrix result="colorOut" in="blurOut" values="0 0 0 0 0 0 0 0 0 0 0 0 0 0 0 0 0 0 0.16862745098039217 0"/><feBlend in="SourceGraphic" in2="colorOut"/></filter><path fill="#3d4752" d="M63-220v92h138v28H63V0H30v-248h175v28H63" id="aA"/><g id="n"><use transform="matrix(0.07407407407407408,0,0,0.07407407407407408,0,0)" xlink:href="#aA"/><use transform="matrix(0.07407407407407408,0,0,0.07407407407407408,16.222222222222225,0)" xlink:href="#ar"/><use transform="matrix(0.07407407407407408,0,0,0.07407407407407408,22.074074074074076,0)" xlink:href="#am"/></g><filter id="m" filterUnits="objectBoundingBox" x="-.05" y="-.05" width="1.09" height="1.25"><feOffset result="offOut" in="SourceAlpha" dy="6"/><feGaussianBlur result="blurOut" in="offOut" stdDeviation="5"/><feColorMatrix result="colorOut" in="blurOut" values="0 0 0 0 0 0 0 0 0 0 0 0 0 0 0 0 0 0 0.16862745098039217 0"/><feBlend in="SourceGraphic" in2="colorOut"/></filter><g id="p"><use transform="matrix(0.07407407407407408,0,0,0.07407407407407408,0,0)" xlink:href="#av"/><use transform="matrix(0.07407407407407408,0,0,0.07407407407407408,7.407407407407408,0)" xlink:href="#aw"/></g><path fill="#3d4752" d="M85 4C-4 8 31-112 24-190h32v120c0 31 7 50 39 49 72-2 45-101 50-169h31l1 190h-30c-1-10 1-25-2-33-11 22-28 36-60 37zM73-211c8-23 27-35 38-54h36v5l-58 49H73" id="aB"/><g id="q"><use transform="matrix(0.07407407407407408,0,0,0.07407407407407408,0,0)" xlink:href="#ax"/><use transform="matrix(0.07407407407407408,0,0,0.07407407407407408,14.814814814814817,0)" xlink:href="#aB"/><use transform="matrix(0.07407407407407408,0,0,0.07407407407407408,29.629629629629633,0)" xlink:href="#am"/><use transform="matrix(0.07407407407407408,0,0,0.07407407407407408,51.777777777777786,0)" xlink:href="#al"/><use transform="matrix(0.07407407407407408,0,0,0.07407407407407408,66.59259259259261,0)" xlink:href="#aj"/><use transform="matrix(0.07407407407407408,0,0,0.07407407407407408,75.40740740740742,0)" xlink:href="#as"/><use transform="matrix(0.07407407407407408,0,0,0.07407407407407408,90.22222222222223,0)" xlink:href="#at"/></g><filter id="o" filterUnits="objectBoundingBox" x="-.04" y="-.02" width="1.08" height="1.1"><feOffset result="offOut" in="SourceAlpha" dy="6"/><feGaussianBlur result="blurOut" in="offOut" stdDeviation="5"/><feColorMatrix result="colorOut" in="blurOut" values="0 0 0 0 0 0 0 0 0 0 0 0 0 0 0 0 0 0 0.16862745098039217 0"/><feBlend in="SourceGraphic" in2="colorOut"/></filter><path fill="#3d4752" d="M190 0L58-211 59 0H30v-248h39L202-35l-2-213h31V0h-41" id="aC"/><path fill="#3d4752" d="M184-316c-4 23-8 48-36 47s-64-43-75 0H57c4-23 8-48 36-47s64 44 74 0h17zM205 0l-28-72H64L36 0H1l101-248h38L239 0h-34zm-38-99l-47-123c-12 45-31 82-46 123h93" id="aD"/><path fill="#3d4752" d="M140-251c81 0 123 46 123 126C263-46 219 4 140 4 59 4 17-45 17-125s42-126 123-126zm0 227c63 0 89-41 89-101s-29-99-89-99c-61 0-89 39-89 99S79-25 140-24" id="aE"/><g id="r"><use transform="matrix(0.07407407407407408,0,0,0.07407407407407408,0,0)" xlink:href="#aC"/><use transform="matrix(0.07407407407407408,0,0,0.07407407407407408,19.185185185185187,0)" xlink:href="#aD"/><use transform="matrix(0.07407407407407408,0,0,0.07407407407407408,36.96296296296296,0)" xlink:href="#aE"/></g><path fill="#3d4752" d="M185-189c-5-48-123-54-124 2 14 75 158 14 163 119 3 78-121 87-175 55-17-10-28-26-33-46l33-7c5 56 141 63 141-1 0-78-155-14-162-118-5-82 145-84 179-34 5 7 8 16 11 25" id="aF"/><path fill="#3d4752" d="M33 0v-248h34V0H33" id="aG"/><path fill="#3d4752" d="M240 0l2-218c-23 76-54 145-80 218h-23L58-218 59 0H30v-248h44l77 211c21-75 51-140 76-211h43V0h-30" id="aH"/><g id="s"><use transform="matrix(0.07407407407407408,0,0,0.07407407407407408,0,0)" xlink:href="#aF"/><use transform="matrix(0.07407407407407408,0,0,0.07407407407407408,17.77777777777778,0)" xlink:href="#aG"/><use transform="matrix(0.07407407407407408,0,0,0.07407407407407408,25.185185185185187,0)" xlink:href="#aH"/></g><path fill="#3d4752" d="M205 0l-28-72H64L36 0H1l101-248h38L239 0h-34zm-38-99l-47-123c-12 45-31 82-46 123h93" id="aI"/><path fill="#3d4752" d="M33-154v-36h34v36H33zM33 0v-36h34V0H33" id="aJ"/><g id="u"><use transform="matrix(0.07407407407407408,0,0,0.07407407407407408,0,0)" xlink:href="#aI"/><use transform="matrix(0.07407407407407408,0,0,0.07407407407407408,17.77777777777778,0)" xlink:href="#az"/><use transform="matrix(0.07407407407407408,0,0,0.07407407407407408,23.629629629629633,0)" xlink:href="#al"/><use transform="matrix(0.07407407407407408,0,0,0.07407407407407408,38.44444444444445,0)" xlink:href="#aj"/><use transform="matrix(0.07407407407407408,0,0,0.07407407407407408,47.25925925925927,0)" xlink:href="#ak"/><use transform="matrix(0.07407407407407408,0,0,0.07407407407407408,54.66666666666667,0)" xlink:href="#aJ"/></g><path fill="#3d4752" d="M109-170H84l-4-78h32zm-65 0H19l-4-78h33" id="aK"/><path fill="#3d4752" d="M96-169c-40 0-48 33-48 73s9 75 48 75c24 0 41-14 43-38l32 2c-6 37-31 61-74 61-59 0-76-41-82-99-10-93 101-131 147-64 4 7 5 14 7 22l-32 3c-4-21-16-35-41-35" id="aL"/><path fill="#3d4752" d="M106-169C34-169 62-67 57 0H25v-261h32l-1 103c12-21 28-36 61-36 89 0 53 116 60 194h-32v-121c2-32-8-49-39-48" id="aM"/><g id="v"><use transform="matrix(0.07407407407407408,0,0,0.07407407407407408,0,0)" xlink:href="#aK"/><use transform="matrix(0.07407407407407408,0,0,0.07407407407407408,9.407407407407408,0)" xlink:href="#au"/><use transform="matrix(0.07407407407407408,0,0,0.07407407407407408,27.18518518518519,0)" xlink:href="#aj"/><use transform="matrix(0.07407407407407408,0,0,0.07407407407407408,36,0)" xlink:href="#al"/><use transform="matrix(0.07407407407407408,0,0,0.07407407407407408,50.81481481481481,0)" xlink:href="#al"/><use transform="matrix(0.07407407407407408,0,0,0.07407407407407408,65.62962962962963,0)" xlink:href="#ax"/><use transform="matrix(0.07407407407407408,0,0,0.07407407407407408,80.44444444444446,0)" xlink:href="#aL"/><use transform="matrix(0.07407407407407408,0,0,0.07407407407407408,93.7777777777778,0)" xlink:href="#aM"/><use transform="matrix(0.07407407407407408,0,0,0.07407407407407408,108.59259259259261,0)" xlink:href="#ag"/></g><g id="w"><use transform="matrix(0.07407407407407408,0,0,0.07407407407407408,0,0)" xlink:href="#ah"/><use transform="matrix(0.07407407407407408,0,0,0.07407407407407408,13.333333333333336,0)" xlink:href="#as"/><use transform="matrix(0.07407407407407408,0,0,0.07407407407407408,28.148148148148152,0)" xlink:href="#am"/><use transform="matrix(0.07407407407407408,0,0,0.07407407407407408,50.296296296296305,0)" xlink:href="#al"/><use transform="matrix(0.07407407407407408,0,0,0.07407407407407408,65.11111111111111,0)" xlink:href="#ax"/><use transform="matrix(0.07407407407407408,0,0,0.07407407407407408,79.92592592592592,0)" xlink:href="#ak"/><use transform="matrix(0.07407407407407408,0,0,0.07407407407407408,87.33333333333333,0)" xlink:href="#al"/></g><g id="x"><use transform="matrix(0.07407407407407408,0,0,0.07407407407407408,0,0)" xlink:href="#ax"/><use transform="matrix(0.07407407407407408,0,0,0.07407407407407408,14.814814814814817,0)" xlink:href="#aB"/><use transform="matrix(0.07407407407407408,0,0,0.07407407407407408,29.629629629629633,0)" xlink:href="#am"/><use transform="matrix(0.07407407407407408,0,0,0.07407407407407408,51.777777777777786,0)" xlink:href="#al"/><use transform="matrix(0.07407407407407408,0,0,0.07407407407407408,66.59259259259261,0)" xlink:href="#aj"/><use transform="matrix(0.07407407407407408,0,0,0.07407407407407408,75.40740740740742,0)" xlink:href="#as"/><use transform="matrix(0.07407407407407408,0,0,0.07407407407407408,90.22222222222223,0)" xlink:href="#ah"/><use transform="matrix(0.07407407407407408,0,0,0.07407407407407408,103.55555555555557,0)" xlink:href="#av"/><use transform="matrix(0.07407407407407408,0,0,0.07407407407407408,110.96296296296298,0)" xlink:href="#aK"/></g><filter id="t" filterUnits="objectBoundingBox" x="-.05" y="-.02" width="1.09" height="1.1"><feOffset result="offOut" in="SourceAlpha" dy="6"/><feGaussianBlur result="blurOut" in="offOut" stdDeviation="5"/><feColorMatrix result="colorOut" in="blurOut" values="0 0 0 0 0 0 0 0 0 0 0 0 0 0 0 0 0 0 0.16862745098039217 0"/><feBlend in="SourceGraphic" in2="colorOut"/></filter><g id="z"><use transform="matrix(0.07407407407407408,0,0,0.07407407407407408,0,0)" xlink:href="#aH"/><use transform="matrix(0.07407407407407408,0,0,0.07407407407407408,22.148148148148152,0)" xlink:href="#ag"/><use transform="matrix(0.07407407407407408,0,0,0.07407407407407408,36.96296296296297,0)" xlink:href="#ax"/><use transform="matrix(0.07407407407407408,0,0,0.07407407407407408,51.777777777777786,0)" xlink:href="#ak"/><use transform="matrix(0.07407407407407408,0,0,0.07407407407407408,59.18518518518519,0)" xlink:href="#al"/><use transform="matrix(0.07407407407407408,0,0,0.07407407407407408,74,0)" xlink:href="#aj"/></g><g id="A"><use transform="matrix(0.07407407407407408,0,0,0.07407407407407408,0,0)" xlink:href="#aL"/><use transform="matrix(0.07407407407407408,0,0,0.07407407407407408,13.333333333333336,0)" xlink:href="#ag"/><use transform="matrix(0.07407407407407408,0,0,0.07407407407407408,28.148148148148152,0)" xlink:href="#ah"/><use transform="matrix(0.07407407407407408,0,0,0.07407407407407408,41.48148148148149,0)" xlink:href="#ag"/><use transform="matrix(0.07407407407407408,0,0,0.07407407407407408,56.296296296296305,0)" xlink:href="#ah"/></g><g id="B"><use transform="matrix(0.07407407407407408,0,0,0.07407407407407408,0,0)" xlink:href="#ap"/><use transform="matrix(0.07407407407407408,0,0,0.07407407407407408,7.407407407407408,0)" xlink:href="#am"/><use transform="matrix(0.07407407407407408,0,0,0.07407407407407408,29.55555555555556,0)" xlink:href="#ai"/><use transform="matrix(0.07407407407407408,0,0,0.07407407407407408,44.37037037037039,0)" xlink:href="#ag"/><use transform="matrix(0.07407407407407408,0,0,0.07407407407407408,59.185185185185205,0)" xlink:href="#aj"/><use transform="matrix(0.07407407407407408,0,0,0.07407407407407408,68.00000000000001,0)" xlink:href="#al"/><use transform="matrix(0.07407407407407408,0,0,0.07407407407407408,82.81481481481484,0)" xlink:href="#ah"/></g><g id="C"><use transform="matrix(0.07407407407407408,0,0,0.07407407407407408,0,0)" xlink:href="#ar"/><use transform="matrix(0.07407407407407408,0,0,0.07407407407407408,5.851851851851853,0)" xlink:href="#aq"/><use transform="matrix(0.07407407407407408,0,0,0.07407407407407408,20.666666666666668,0)" xlink:href="#ay"/><use transform="matrix(0.07407407407407408,0,0,0.07407407407407408,35.48148148148149,0)" xlink:href="#ag"/><use transform="matrix(0.07407407407407408,0,0,0.07407407407407408,50.296296296296305,0)" xlink:href="#ar"/><use transform="matrix(0.07407407407407408,0,0,0.07407407407407408,56.14814814814815,0)" xlink:href="#ah"/></g><filter id="y" filterUnits="objectBoundingBox" x="-.05" y="-.02" width="1.09" height="1.1"><feOffset result="offOut" in="SourceAlpha" dy="6"/><feGaussianBlur result="blurOut" in="offOut" stdDeviation="5"/><feColorMatrix result="colorOut" in="blurOut" values="0 0 0 0 0 0 0 0 0 0 0 0 0 0 0 0 0 0 0.16862745098039217 0"/><feBlend in="SourceGraphic" in2="colorOut"/></filter><g id="D"><use transform="matrix(0.07407407407407408,0,0,0.07407407407407408,0,0)" xlink:href="#aF"/><use transform="matrix(0.07407407407407408,0,0,0.07407407407407408,17.77777777777778,0)" xlink:href="#as"/><use transform="matrix(0.07407407407407408,0,0,0.07407407407407408,32.592592592592595,0)" xlink:href="#am"/><use transform="matrix(0.07407407407407408,0,0,0.07407407407407408,54.74074074074075,0)" xlink:href="#ag"/><use transform="matrix(0.07407407407407408,0,0,0.07407407407407408,69.55555555555557,0)" xlink:href="#aj"/></g><g id="E"><use transform="matrix(0.07407407407407408,0,0,0.07407407407407408,0,0)" xlink:href="#ao"/><use transform="matrix(0.07407407407407408,0,0,0.07407407407407408,14.814814814814817,0)" xlink:href="#ap"/><use transform="matrix(0.07407407407407408,0,0,0.07407407407407408,22.222222222222225,0)" xlink:href="#aq"/><use transform="matrix(0.07407407407407408,0,0,0.07407407407407408,37.03703703703704,0)" xlink:href="#ar"/><use transform="matrix(0.07407407407407408,0,0,0.07407407407407408,42.88888888888889,0)" xlink:href="#ak"/><use transform="matrix(0.07407407407407408,0,0,0.07407407407407408,50.296296296296305,0)" xlink:href="#as"/><use transform="matrix(0.07407407407407408,0,0,0.07407407407407408,65.11111111111111,0)" xlink:href="#ah"/></g><path fill="#3d4752" d="M108 0H70L1-190h34L89-25l56-165h34" id="aN"/><g id="G"><use transform="matrix(0.07407407407407408,0,0,0.07407407407407408,0,0)" xlink:href="#aG"/><use transform="matrix(0.07407407407407408,0,0,0.07407407407407408,7.407407407407408,0)" xlink:href="#ax"/><use transform="matrix(0.07407407407407408,0,0,0.07407407407407408,22.222222222222225,0)" xlink:href="#aN"/><use transform="matrix(0.07407407407407408,0,0,0.07407407407407408,35.55555555555556,0)" xlink:href="#al"/><use transform="matrix(0.07407407407407408,0,0,0.07407407407407408,50.370370370370374,0)" xlink:href="#aj"/><use transform="matrix(0.07407407407407408,0,0,0.07407407407407408,59.18518518518519,0)" xlink:href="#ak"/><use transform="matrix(0.07407407407407408,0,0,0.07407407407407408,66.5925925925926,0)" xlink:href="#al"/></g><g id="H"><use transform="matrix(0.07407407407407408,0,0,0.07407407407407408,0,0)" xlink:href="#ax"/><use transform="matrix(0.07407407407407408,0,0,0.07407407407407408,14.814814814814817,0)" xlink:href="#aB"/><use transform="matrix(0.07407407407407408,0,0,0.07407407407407408,29.629629629629633,0)" xlink:href="#am"/><use transform="matrix(0.07407407407407408,0,0,0.07407407407407408,51.777777777777786,0)" xlink:href="#al"/><use transform="matrix(0.07407407407407408,0,0,0.07407407407407408,66.59259259259261,0)" xlink:href="#aj"/><use transform="matrix(0.07407407407407408,0,0,0.07407407407407408,75.40740740740742,0)" xlink:href="#as"/></g><filter id="F" filterUnits="objectBoundingBox" x="-.05" y="-.02" width="1.09" height="1.1"><feOffset result="offOut" in="SourceAlpha" dy="6"/><feGaussianBlur result="blurOut" in="offOut" stdDeviation="5"/><feColorMatrix result="colorOut" in="blurOut" values="0 0 0 0 0 0 0 0 0 0 0 0 0 0 0 0 0 0 0.16862745098039217 0"/><feBlend in="SourceGraphic" in2="colorOut"/></filter><g id="J"><use transform="matrix(0.07407407407407408,0,0,0.07407407407407408,0,0)" xlink:href="#aF"/><use transform="matrix(0.07407407407407408,0,0,0.07407407407407408,17.77777777777778,0)" xlink:href="#as"/><use transform="matrix(0.07407407407407408,0,0,0.07407407407407408,32.592592592592595,0)" xlink:href="#am"/><use transform="matrix(0.07407407407407408,0,0,0.07407407407407408,54.74074074074075,0)" xlink:href="#ag"/></g><path fill="#3d4752" d="M252-156c43 0 55 33 55 80 0 46-13 78-56 78-42 0-55-33-55-78 0-48 12-80 56-80zM93 0H65l162-248h28zM13-171c-1-47 13-79 56-79s55 33 55 79-13 79-55 79c-43 0-56-33-56-79zM251-17c28 0 30-29 30-59 0-31-1-60-29-60-29 0-31 29-31 60 0 29 2 59 30 59zM69-112c27 0 28-30 29-59 0-31-1-60-29-60-29 0-30 30-30 60s2 59 30 59" id="aO"/><use transform="matrix(0.07407407407407408,0,0,0.07407407407407408,0,0)" xlink:href="#aO" id="K"/><path fill="#3d4752" d="M27 0v-27h64v-190l-56 39v-29l58-41h29v221h61V0H27" id="aP"/><path fill="#3d4752" d="M101-251c68 0 85 55 85 127S166 4 100 4C33 4 14-52 14-124c0-73 17-127 87-127zm-1 229c47 0 54-49 54-102s-4-102-53-102c-51 0-55 48-55 102 0 53 5 102 54 102" id="aQ"/><g id="L"><use transform="matrix(0.07407407407407408,0,0,0.07407407407407408,0,0)" xlink:href="#aP"/><use transform="matrix(0.07407407407407408,0,0,0.07407407407407408,14.814814814814817,0)" xlink:href="#aQ"/></g><use transform="matrix(0.07407407407407408,0,0,0.07407407407407408,0,0)" xlink:href="#aw" id="M"/><g id="N"><use transform="matrix(0.07407407407407408,0,0,0.07407407407407408,0,0)" xlink:href="#aQ"/><use transform="matrix(0.07407407407407408,0,0,0.07407407407407408,14.814814814814817,0)" xlink:href="#at"/></g><filter id="I" filterUnits="objectBoundingBox" x="-.05" y="-.02" width="1.09" height="1.1"><feOffset result="offOut" in="SourceAlpha" dy="6"/><feGaussianBlur result="blurOut" in="offOut" stdDeviation="5"/><feColorMatrix result="colorOut" in="blurOut" values="0 0 0 0 0 0 0 0 0 0 0 0 0 0 0 0 0 0 0.16862745098039217 0"/><feBlend in="SourceGraphic" in2="colorOut"/></filter><g id="P"><use transform="matrix(0.07407407407407408,0,0,0.07407407407407408,0,0)" xlink:href="#aH"/><use transform="matrix(0.07407407407407408,0,0,0.07407407407407408,22.148148148148152,0)" xlink:href="#ay"/><use transform="matrix(0.07407407407407408,0,0,0.07407407407407408,36.96296296296297,0)" xlink:href="#az"/><use transform="matrix(0.07407407407407408,0,0,0.07407407407407408,42.814814814814824,0)" xlink:href="#ak"/><use transform="matrix(0.07407407407407408,0,0,0.07407407407407408,50.22222222222223,0)" xlink:href="#ar"/><use transform="matrix(0.07407407407407408,0,0,0.07407407407407408,56.07407407407408,0)" xlink:href="#ai"/><use transform="matrix(0.07407407407407408,0,0,0.07407407407407408,70.8888888888889,0)" xlink:href="#az"/><use transform="matrix(0.07407407407407408,0,0,0.07407407407407408,76.74074074074075,0)" xlink:href="#ar"/><use transform="matrix(0.07407407407407408,0,0,0.07407407407407408,82.59259259259261,0)" xlink:href="#aL"/><use transform="matrix(0.07407407407407408,0,0,0.07407407407407408,95.92592592592592,0)" xlink:href="#ag"/></g><g id="Q"><use transform="matrix(0.07407407407407408,0,0,0.07407407407407408,0,0)" xlink:href="#aL"/><use transform="matrix(0.07407407407407408,0,0,0.07407407407407408,13.333333333333336,0)" xlink:href="#ag"/><use transform="matrix(0.07407407407407408,0,0,0.07407407407407408,28.148148148148152,0)" xlink:href="#ah"/><use transform="matrix(0.07407407407407408,0,0,0.07407407407407408,41.48148148148149,0)" xlink:href="#ag"/><use transform="matrix(0.07407407407407408,0,0,0.07407407407407408,56.296296296296305,0)" xlink:href="#ah"/></g><g id="R"><use transform="matrix(0.07407407407407408,0,0,0.07407407407407408,0,0)" xlink:href="#ai"/><use transform="matrix(0.07407407407407408,0,0,0.07407407407407408,14.814814814814817,0)" xlink:href="#ag"/><use transform="matrix(0.07407407407407408,0,0,0.07407407407407408,29.629629629629633,0)" xlink:href="#aj"/><use transform="matrix(0.07407407407407408,0,0,0.07407407407407408,38.44444444444445,0)" xlink:href="#al"/><use transform="matrix(0.07407407407407408,0,0,0.07407407407407408,53.25925925925927,0)" xlink:href="#ah"/></g><g id="S"><use transform="matrix(0.07407407407407408,0,0,0.07407407407407408,0,0)" xlink:href="#ai"/><use transform="matrix(0.07407407407407408,0,0,0.07407407407407408,14.814814814814817,0)" xlink:href="#as"/><use transform="matrix(0.07407407407407408,0,0,0.07407407407407408,29.629629629629633,0)" xlink:href="#aj"/></g><use transform="matrix(0.07407407407407408,0,0,0.07407407407407408,0,0)" xlink:href="#an" id="T"/><filter id="O" filterUnits="objectBoundingBox" x="-.05" y="-.02" width="1.09" height="1.1"><feOffset result="offOut" in="SourceAlpha" dy="6"/><feGaussianBlur result="blurOut" in="offOut" stdDeviation="5"/><feColorMatrix result="colorOut" in="blurOut" values="0 0 0 0 0 0 0 0 0 0 0 0 0 0 0 0 0 0 0.16862745098039217 0"/><feBlend in="SourceGraphic" in2="colorOut"/></filter><g id="V"><use transform="matrix(0.07407407407407408,0,0,0.07407407407407408,0,0)" xlink:href="#ak"/><use transform="matrix(0.07407407407407408,0,0,0.07407407407407408,7.407407407407408,0)" xlink:href="#as"/><use transform="matrix(0.07407407407407408,0,0,0.07407407407407408,22.222222222222225,0)" xlink:href="#ao"/><use transform="matrix(0.07407407407407408,0,0,0.07407407407407408,37.03703703703704,0)" xlink:href="#ag"/><use transform="matrix(0.07407407407407408,0,0,0.07407407407407408,51.85185185185186,0)" xlink:href="#ah"/></g><g id="W"><use transform="matrix(0.07407407407407408,0,0,0.07407407407407408,0,0)" xlink:href="#ag"/><use transform="matrix(0.07407407407407408,0,0,0.07407407407407408,14.814814814814817,0)" xlink:href="#ah"/></g><g id="X"><use transform="matrix(0.07407407407407408,0,0,0.07407407407407408,0,0)" xlink:href="#aL"/><use transform="matrix(0.07407407407407408,0,0,0.07407407407407408,13.333333333333336,0)" xlink:href="#ag"/><use transform="matrix(0.07407407407407408,0,0,0.07407407407407408,28.148148148148152,0)" xlink:href="#ah"/><use transform="matrix(0.07407407407407408,0,0,0.07407407407407408,41.48148148148149,0)" xlink:href="#ag"/><use transform="matrix(0.07407407407407408,0,0,0.07407407407407408,56.296296296296305,0)" xlink:href="#ah"/></g><filter id="U" filterUnits="objectBoundingBox" x="-.05" y="-.02" width="1.09" height="1.1"><feOffset result="offOut" in="SourceAlpha" dy="6"/><feGaussianBlur result="blurOut" in="offOut" stdDeviation="5"/><feColorMatrix result="colorOut" in="blurOut" values="0 0 0 0 0 0 0 0 0 0 0 0 0 0 0 0 0 0 0.16862745098039217 0"/><feBlend in="SourceGraphic" in2="colorOut"/></filter><g id="Y"><use transform="matrix(0.07407407407407408,0,0,0.07407407407407408,0,0)" xlink:href="#aF"/><use transform="matrix(0.07407407407407408,0,0,0.07407407407407408,17.77777777777778,0)" xlink:href="#aG"/><use transform="matrix(0.07407407407407408,0,0,0.07407407407407408,25.185185185185187,0)" xlink:href="#aH"/></g><g id="Z"><use transform="matrix(0.07407407407407408,0,0,0.07407407407407408,0,0)" xlink:href="#aG"/><use transform="matrix(0.07407407407407408,0,0,0.07407407407407408,7.407407407407408,0)" xlink:href="#am"/><use transform="matrix(0.07407407407407408,0,0,0.07407407407407408,29.55555555555556,0)" xlink:href="#ai"/><use transform="matrix(0.07407407407407408,0,0,0.07407407407407408,44.37037037037039,0)" xlink:href="#aj"/><use transform="matrix(0.07407407407407408,0,0,0.07407407407407408,53.1851851851852,0)" xlink:href="#ar"/><use transform="matrix(0.07407407407407408,0,0,0.07407407407407408,59.03703703703705,0)" xlink:href="#am"/><use transform="matrix(0.07407407407407408,0,0,0.07407407407407408,81.18518518518522,0)" xlink:href="#al"/></g><g id="aa"><use transform="matrix(0.07407407407407408,0,0,0.07407407407407408,0,0)" xlink:href="#am"/><use transform="matrix(0.07407407407407408,0,0,0.07407407407407408,22.148148148148152,0)" xlink:href="#al"/><use transform="matrix(0.07407407407407408,0,0,0.07407407407407408,36.96296296296297,0)" xlink:href="#ax"/><use transform="matrix(0.07407407407407408,0,0,0.07407407407407408,51.777777777777786,0)" xlink:href="#ah"/><use transform="matrix(0.07407407407407408,0,0,0.07407407407407408,65.11111111111111,0)" xlink:href="#ag"/><use transform="matrix(0.07407407407407408,0,0,0.07407407407407408,79.92592592592592,0)" xlink:href="#aq"/><use transform="matrix(0.07407407407407408,0,0,0.07407407407407408,94.74074074074073,0)" xlink:href="#al"/><use transform="matrix(0.07407407407407408,0,0,0.07407407407407408,109.55555555555554,0)" xlink:href="#am"/></g><path fill="#3d4752" d="M141-36C126-15 110 5 73 4 37 3 15-17 15-53c-1-64 63-63 125-63 3-35-9-54-41-54-24 1-41 7-42 31l-33-3c5-37 33-52 76-52 45 0 72 20 72 64v82c-1 20 7 32 28 27v20c-31 9-61-2-59-35zM48-53c0 20 12 33 32 33 41-3 63-29 60-74-43 2-92-5-92 41zm117-205c-3 23-9 48-36 47-26-1-65-44-74 0H39c4-23 8-48 36-47s64 44 74 0h16" id="aR"/><g id="ab"><use transform="matrix(0.07407407407407408,0,0,0.07407407407407408,0,0)" xlink:href="#aK"/><use transform="matrix(0.07407407407407408,0,0,0.07407407407407408,9.407407407407408,0)" xlink:href="#af"/><use transform="matrix(0.07407407407407408,0,0,0.07407407407407408,28.592592592592595,0)" xlink:href="#ag"/><use transform="matrix(0.07407407407407408,0,0,0.07407407407407408,43.40740740740741,0)" xlink:href="#aj"/><use transform="matrix(0.07407407407407408,0,0,0.07407407407407408,52.22222222222223,0)" xlink:href="#ak"/><use transform="matrix(0.07407407407407408,0,0,0.07407407407407408,59.62962962962964,0)" xlink:href="#aR"/><use transform="matrix(0.07407407407407408,0,0,0.07407407407407408,74.44444444444446,0)" xlink:href="#as"/></g><path fill="#3d4752" d="M137 0h-34L2-248h35l83 218 83-218h36" id="aS"/><path fill="#3d4752" d="M141-36C126-15 110 5 73 4 37 3 15-17 15-53c-1-64 63-63 125-63 3-35-9-54-41-54-24 1-41 7-42 31l-33-3c5-37 33-52 76-52 45 0 72 20 72 64v82c-1 20 7 32 28 27v20c-31 9-61-2-59-35zM48-53c0 20 12 33 32 33 41-3 63-29 60-74-43 2-92-5-92 41zm25-158c8-23 27-35 38-54h36v5l-58 49H73" id="aT"/><g id="ac"><use transform="matrix(0.07407407407407408,0,0,0.07407407407407408,0,0)" xlink:href="#aS"/><use transform="matrix(0.07407407407407408,0,0,0.07407407407407408,17.77777777777778,0)" xlink:href="#aT"/><use transform="matrix(0.07407407407407408,0,0,0.07407407407407408,32.592592592592595,0)" xlink:href="#az"/><use transform="matrix(0.07407407407407408,0,0,0.07407407407407408,38.44444444444445,0)" xlink:href="#ar"/><use transform="matrix(0.07407407407407408,0,0,0.07407407407407408,44.296296296296305,0)" xlink:href="#ao"/><use transform="matrix(0.07407407407407408,0,0,0.07407407407407408,59.11111111111112,0)" xlink:href="#as"/><use transform="matrix(0.07407407407407408,0,0,0.07407407407407408,73.92592592592594,0)" xlink:href="#aK"/></g><g id="ad"><use transform="matrix(0.07407407407407408,0,0,0.07407407407407408,0,0)" xlink:href="#aC"/><use transform="matrix(0.07407407407407408,0,0,0.07407407407407408,19.185185185185187,0)" xlink:href="#aD"/><use transform="matrix(0.07407407407407408,0,0,0.07407407407407408,36.96296296296296,0)" xlink:href="#aE"/></g><g id="ae"><use transform="matrix(0.07407407407407408,0,0,0.07407407407407408,0,0)" xlink:href="#aG"/><use transform="matrix(0.07407407407407408,0,0,0.07407407407407408,7.407407407407408,0)" xlink:href="#ax"/><use transform="matrix(0.07407407407407408,0,0,0.07407407407407408,22.222222222222225,0)" xlink:href="#aN"/><use transform="matrix(0.07407407407407408,0,0,0.07407407407407408,35.55555555555556,0)" xlink:href="#aT"/><use transform="matrix(0.07407407407407408,0,0,0.07407407407407408,50.370370370370374,0)" xlink:href="#az"/><use transform="matrix(0.07407407407407408,0,0,0.07407407407407408,56.22222222222223,0)" xlink:href="#ar"/><use transform="matrix(0.07407407407407408,0,0,0.07407407407407408,62.07407407407408,0)" xlink:href="#ao"/><use transform="matrix(0.07407407407407408,0,0,0.07407407407407408,76.8888888888889,0)" xlink:href="#as"/><use transform="matrix(0.07407407407407408,0,0,0.07407407407407408,91.70370370370371,0)" xlink:href="#aK"/></g></defs></g></svg>